SplineFontDB: 3.0
FontName: CigarEPM
FullName: CigarEPM
FamilyName: CigarEPM
Weight: Regular
Copyright: Copyright (c) 2018, Stephen Meisburger
UComments: "2018-1-3: Created with FontForge (http://fontforge.org)"
Version: 001.000
ItalicAngle: 0
UnderlinePosition: -100
UnderlineWidth: 50
Ascent: 800
Descent: 200
InvalidEm: 0
LayerCount: 2
Layer: 0 0 "Back" 1
Layer: 1 0 "Fore" 0
XUID: [1021 507 1893282774 3755577]
StyleMap: 0x0000
FSType: 0
OS2Version: 0
OS2_WeightWidthSlopeOnly: 0
OS2_UseTypoMetrics: 1
CreationTime: 1515006230
ModificationTime: 1515019574
PfmFamily: 17
TTFWeight: 400
TTFWidth: 5
LineGap: 90
VLineGap: 90
OS2TypoAscent: 0
OS2TypoAOffset: 1
OS2TypoDescent: 0
OS2TypoDOffset: 1
OS2TypoLinegap: 90
OS2WinAscent: 0
OS2WinAOffset: 1
OS2WinDescent: 0
OS2WinDOffset: 1
HheadAscent: 0
HheadAOffset: 1
HheadDescent: 0
HheadDOffset: 1
OS2Vendor: 'PfEd'
MarkAttachClasses: 1
DEI: 91125
LangName: 1033
Encoding: ISO8859-1
UnicodeInterp: none
NameList: AGL For New Fonts
DisplaySize: -48
AntiAlias: 1
FitToEm: 0
WinInfo: 0 12 9
BeginPrivate: 0
EndPrivate
TeXData: 1 0 0 566231 283116 188743 458228 1048576 188743 783286 444596 497025 792723 393216 433062 380633 303038 157286 324010 404750 52429 2506097 1059062 262144
BeginChars: 256 256

StartChar: a
Encoding: 97 97 0
Width: 540
VWidth: 0
Flags: W
HStem: 74 72<146.772 309.003> 277 67<158.375 306.72> 463 58<168.125 332.84>
VStem: 49 67<176.746 253.496> 74 93<383.297 458.047> 74 84<352 431.389> 365 59<211.331 307.745 369.391 429.797>
LayerCount: 2
Fore
SplineSet
263 521 m 1xea
 299 521 331 516 342 506 c 0
 350 499 361 493 367 493 c 0
 373 493 388 477 400 457 c 0
 421 423 424 414 424 295 c 0
 424 173 425 168 445 155 c 0
 462 143 473 124 473 106 c 0
 473 101 473 96 471 92 c 0
 467 84 450 79 432 79 c 0
 414 79 394 84 387 92 c 0
 380 101 371 105 357 105 c 0
 344 105 327 102 304 94 c 0
 283 87 241 79 211 76 c 0
 198 75 188 74 179 74 c 0
 156 74 142 78 121 89 c 0
 102 99 79 115 71 125 c 0
 56 143 49 170 49 200 c 0xf2
 49 242 63 288 91 314 c 2
 118 339 l 1
 95 361 l 2
 81 375 74 391 74 408 c 0
 74 445 106 485 162 506 c 0
 187 516 227 521 263 521 c 1xea
230 463 m 0
 188 462 167 454 167 439 c 0xea
 167 435 168 430 172 424 c 0
 176 418 178 412 178 406 c 0
 178 398 175 390 168 378 c 0
 161 365 158 358 158 354 c 0xe6
 158 350 161 348 169 346 c 0
 175 345 183 344 194 344 c 0
 236 344 306 353 331 363 c 0
 350 371 360 381 360 394 c 0
 360 405 353 419 339 435 c 0
 320 457 311 461 256 463 c 0
 247 463 238 463 230 463 c 0
349 309 m 0
 342 309 319 304 296 295 c 0
 269 285 234 277 218 277 c 0
 180 277 130 256 119 236 c 0
 117 232 116 228 116 223 c 0xf2
 116 202 134 174 161 157 c 0
 173 150 192 146 215 146 c 0
 251 146 294 155 321 171 c 0
 339 181 356 199 361 211 c 0
 364 218 365 229 365 241 c 0
 365 269 359 303 351 308 c 0
 351 308 350 309 349 309 c 0
EndSplineSet
Validated: 1
EndChar

StartChar: b
Encoding: 98 98 1
Width: 540
VWidth: 0
Flags: W
HStem: 52 64<227.375 361.266> 430 62<231.063 363.755> 588 55<60.3412 120.928>
VStem: 128 54<181.728 368.439> 411 61<175.84 379.23>
LayerCount: 2
Fore
SplineSet
249 61 m 0
 235 65 218 73 211 79 c 0
 206 83 200 86 193 86 c 0
 187 86 181 84 172 81 c 0
 163 78 156 76 150 76 c 0
 144 76 139 78 135 83 c 0
 130 90 128 148 128 259 c 0
 128 280 128 304 128 329 c 0
 128 364 128 395 128 421 c 0
 128 559 124 588 102 588 c 0
 99 588 95 587 91 586 c 0
 89 585 87 585 85 585 c 0
 70 585 57 600 57 614 c 0
 57 618 58 622 60 626 c 0
 67 637 92 643 117 643 c 0
 136 643 156 640 168 632 c 0
 186 620 189 612 189 558 c 0
 189 524 193 492 198 487 c 0
 201 484 207 483 217 483 c 0
 228 483 243 484 263 488 c 0
 278 491 292 492 306 492 c 0
 356 492 395 474 426 436 c 0
 453 403 472 322 472 258 c 0
 472 241 471 226 468 212 c 0
 447 110 385 52 305 52 c 0
 287 52 268 55 249 61 c 0
344 122 m 0
 361 129 400 183 409 213 c 0
 411 219 411 231 411 247 c 0
 411 263 411 282 409 300 c 0
 403 360 400 371 373 399 c 0
 347 426 336 430 301 430 c 0
 247 430 222 412 198 356 c 0
 187 329 182 310 182 289 c 0
 182 282 182 275 183 268 c 0
 191 207 205 165 226 139 c 0
 240 121 249 116 277 116 c 0
 280 116 283 116 286 116 c 0
 309 116 336 119 344 122 c 0
EndSplineSet
Validated: 1
EndChar

StartChar: c
Encoding: 99 99 2
Width: 540
VWidth: 0
Flags: W
HStem: 53 78<185.713 316.531> 439 66<174.875 308.634>
VStem: 50 67<212.077 361.544> 311 103<330.272 434.93>
LayerCount: 2
Fore
SplineSet
185 65 m 0
 132 84 66 153 58 199 c 0
 53 227 50 252 50 276 c 0
 50 364 86 426 163 480 c 0
 187 497 218 505 251 505 c 0
 306 505 364 482 395 443 c 0
 408 426 414 405 414 375 c 0
 414 339 410 329 390 313 c 0
 379 304 368 300 357 300 c 0
 342 300 327 307 312 322 c 0
 304 330 300 336 300 345 c 0
 300 352 302 361 306 375 c 0
 309 388 311 399 311 407 c 0
 311 432 294 439 247 439 c 0
 210 439 194 434 175 418 c 0
 149 395 117 322 117 284 c 0
 117 223 179 137 225 133 c 0
 236 132 246 131 255 131 c 0
 290 131 306 140 329 165 c 0
 345 182 372 199 387 202 c 0
 394 203 399 204 403 204 c 0
 413 204 414 198 414 176 c 0
 414 150 406 138 374 108 c 0
 334 72 292 53 248 53 c 0
 228 53 207 57 185 65 c 0
EndSplineSet
Validated: 1
EndChar

StartChar: d
Encoding: 100 100 3
Width: 540
VWidth: 0
Flags: W
HStem: 57 67<157.126 241.074> 439 38<163.85 266.875> 591 47<174.343 306.921>
VStem: 21 76<194.501 365.83> 309 56<494.56 586.387> 315 57<189.217 378.561 478.203 584.645>
LayerCount: 2
Fore
SplineSet
155 61 m 0xf8
 112 71 86 91 60 135 c 0
 33 181 21 220 21 266 c 0
 21 283 22 302 26 322 c 0
 38 389 81 456 126 479 c 0
 137 485 145 488 163 488 c 0
 181 488 207 485 255 479 c 0
 265 478 274 477 281 477 c 0
 310 477 315 490 315 535 c 0
 315 575 301 591 260 591 c 0
 252 591 243 590 233 589 c 0
 226 588 219 588 213 588 c 0
 187 588 174 595 174 610 c 0
 174 614 174 618 176 622 c 0
 181 633 197 638 241 638 c 0
 255 638 272 638 292 637 c 0
 349 635 363 622 363 568 c 0
 363 544 365 521 369 516 c 0
 371 514 372 506 372 494 c 0xf4
 372 482 371 467 369 453 c 0
 366 434 365 415 365 403 c 0
 365 397 365 393 366 392 c 0
 368 388 372 332 374 267 c 0
 377 157 379 146 401 114 c 0
 414 96 420 86 420 78 c 0
 420 73 418 69 414 65 c 0
 408 58 401 54 389 54 c 0
 383 54 375 55 365 57 c 0
 345 60 323 67 317 72 c 0
 313 75 308 76 302 76 c 0
 296 76 289 75 281 72 c 0
 257 63 223 57 193 57 c 0
 179 57 166 58 155 61 c 0xf8
225 133 m 0
 225 138 234 144 245 147 c 0
 256 150 276 166 288 181 c 0
 305 203 309 213 309 260 c 0
 309 267 309 275 309 283 c 0xf8
 308 348 304 363 282 398 c 0
 258 436 254 439 214 439 c 0
 155 439 131 415 109 336 c 0
 101 307 97 284 97 269 c 0
 97 263 98 258 99 255 c 0
 103 245 109 226 112 213 c 0
 120 175 170 124 200 124 c 0
 214 124 225 128 225 133 c 0
EndSplineSet
Validated: 1
EndChar

StartChar: question
Encoding: 63 63 7
Width: 540
VWidth: 0
Flags: W
HStem: 1 153<214.207 289.63> 538 59<181.029 300.391>
VStem: 53 136<391.373 485.735> 53 111<450.175 519.717> 178 146<35.3407 120.092> 216 84<203.267 276.426> 378 54<391.095 477.315>
LayerCount: 2
Fore
SplineSet
237 597 m 0xe2
 241 597 244 597 248 597 c 0
 325 595 372 572 406 519 c 0
 426 490 432 479 432 454 c 0
 432 446 431 436 430 425 c 0
 423 356 413 339 354 301 c 0
 327 284 303 263 300 255 c 0
 286 206 268 181 249 181 c 0
 242 181 235 184 227 192 c 0
 221 198 216 222 216 247 c 0
 216 304 239 335 294 356 c 0
 350 377 378 403 378 432 c 0
 378 447 370 463 354 480 c 0
 341 494 326 505 321 505 c 0
 316 505 303 513 292 524 c 0
 280 534 272 538 257 538 c 0
 250 538 242 538 231 536 c 0
 208 533 183 522 175 513 c 0
 168 505 164 500 164 495 c 0xd6
 164 490 168 484 174 474 c 0
 184 459 189 445 189 432 c 0
 189 415 181 401 165 389 c 0
 149 376 132 370 116 370 c 0
 89 370 65 388 57 421 c 0
 54 431 53 441 53 451 c 0
 53 530 132 595 237 597 c 0xe2
269 154 m 0
 292 154 324 113 324 83 c 0
 324 47 278 1 241 1 c 0
 225 1 206 5 200 9 c 0
 186 18 178 43 178 67 c 0xca
 178 80 180 91 185 101 c 0
 199 128 240 154 269 154 c 0
EndSplineSet
Validated: 1
EndChar

StartChar: at
Encoding: 64 64 8
Width: 540
VWidth: 0
Flags: W
HStem: -12 62<211.372 394.848> 108 29<227.924 285.363> 424 51<254.536 355.462> 520 28<172.766 239.327> 523 18<315.861 332.996>
VStem: 8 37<221.745 373.251> 55 53<136.241 159.324> 132 41<186.017 343.386> 342 52<183.453 270.71> 395 145<65.9121 119> 477 60<216.48 360.069>
LayerCount: 2
Fore
SplineSet
454 19 m 4xe7c0
 443 19 374 -12 360 -12 c 6
 358 -12 l 5
 356 -10 325 -6 289 -4 c 4
 203 1 124 38 83 92 c 4
 63 118 55 129 55 137 c 4
 55 148 65 160 79 160 c 4
 92 160 108 154 108 144 c 4
 108 140 118 136 131 136 c 4
 152 136 153 138 143 156 c 4
 136 170 132 196 132 226 c 4
 132 262 137 303 147 334 c 4
 160 375 171 390 211 422 c 4
 254 457 290 475 311 475 c 4
 317 475 323 473 326 470 c 4
 333 464 343 460 353 460 c 4
 363 460 374 464 374 474 c 4
 374 487 355 511 355 524 c 4
 355 534 362 540 375 540 c 4
 379 540 384 539 390 538 c 4
 422 530 494 454 515 406 c 4
 529 374 537 327 537 287 c 4xe7a0
 537 268 535 252 532 238 c 4
 529 229 528 222 528 216 c 4
 528 209 530 204 533 202 c 4
 539 199 537 193 528 188 c 4
 520 184 507 168 499 153 c 6
 485 125 l 5
 512 131 l 6
 520 133 526 134 530 134 c 4
 539 134 540 128 540 110 c 4
 540 90 531 76 502 51 c 4
 482 33 460 19 454 19 c 4xe7c0
221 96 m 4
 200 96 188 118 167 118 c 4
 158 118 154 116 154 112 c 4
 154 104 174 88 208 71 c 4
 236 56 261 50 293 50 c 4
 316 50 342 53 376 60 c 4
 389 63 395 67 395 72 c 4xe7c0
 395 78 386 86 368 95 c 4
 350 104 331 108 309 108 c 4
 291 108 271 105 248 100 c 4
 237 98 228 96 221 96 c 4
306 169 m 4
 327 188 342 209 342 221 c 4
 342 232 352 266 364 297 c 6
 386 354 l 5
 366 389 l 6
 348 422 344 424 303 424 c 4
 265 424 255 420 233 395 c 4
 218 380 200 356 193 343 c 4
 181 320 173 275 173 247 c 4
 173 234 175 225 179 222 c 4
 184 219 189 209 189 200 c 4
 189 177 233 140 263 137 c 4
 268 137 287 152 306 169 c 4
394 193 m 4
 394 183 394 171 403 171 c 4
 414 171 433 186 450 209 c 4
 473 242 477 255 477 304 c 4xe7a0
 477 355 475 361 459 361 c 4
 446 361 441 355 441 339 c 4
 441 327 437 315 432 312 c 4
 427 308 423 299 423 291 c 4
 423 283 417 271 410 263 c 4
 402 253 394 219 394 193 c 4
45 344 m 6
 45 308 56 257 56 220 c 4
 56 195 51 181 39 181 c 4
 34 181 28 183 22 188 c 4
 13 195 10 219 8 302 c 4
 8 344 11 358 27 374 c 6
 46 392 l 5
 45 352 l 5
 45 344 l 6
218 548 m 4xf780
 228 548 240 544 240 537 c 4
 240 529 227 520 211 520 c 4
 208 520 206 520 203 521 c 4
 187 524 178 520 175 511 c 4
 172 503 164 496 158 496 c 4
 151 496 127 476 102 451 c 4
 73 422 57 408 51 408 c 4
 49 408 47 410 47 413 c 4
 47 416 48 420 50 426 c 4
 65 476 168 548 218 548 c 4xf780
325 523 m 4xef80
 316 523 298 541 319 541 c 4
 327 541 333 537 333 532 c 4
 333 527 329 523 325 523 c 4xef80
EndSplineSet
Validated: 1
EndChar

StartChar: A
Encoding: 65 65 9
Width: 540
VWidth: 0
Flags: W
HStem: 5 87<21.9553 78.7891> 12 106<443.822 502.518> 210 35<224.547 329.267>
VStem: 180 34<322.025 401.812>
LayerCount: 2
Fore
SplineSet
325 420 m 1xb0
 340 398 l 2
 348 386 360 359 366 339 c 0
 375 306 400 242 438 152 c 0
 447 130 459 118 470 118 c 0
 495 118 522 102 522 86 c 0
 522 78 526 75 531 78 c 0
 536 81 540 78 540 71 c 0
 540 64 523 47 502 33 c 0
 479 17 469 12 449 12 c 0x70
 437 12 422 14 398 17 c 0
 337 26 297 44 297 65 c 0
 297 69 311 80 328 88 c 0
 353 100 365 113 365 131 c 0
 365 141 362 153 355 167 c 0
 340 199 332 210 304 210 c 0
 292 210 276 208 254 205 c 2
 189 196 l 1
 189 163 l 2
 189 138 195 124 220 100 c 0
 241 80 252 61 252 45 c 0
 252 16 233 11 125 6 c 0
 111 5 99 5 89 5 c 0
 59 5 47 9 28 22 c 0
 10 35 1 49 1 62 c 0
 1 76 12 87 34 92 c 0
 80 101 104 130 122 197 c 0
 131 230 141 261 145 266 c 0
 149 271 153 283 153 294 c 0
 153 305 159 319 166 325 c 0
 173 331 180 347 180 360 c 0
 180 373 186 392 193 402 c 0
 206 419 206 419 212 402 c 0
 214 398 214 393 214 387 c 0
 214 379 213 370 210 362 c 0
 206 352 204 335 204 319 c 0
 204 313 204 307 205 302 c 0
 208 269 212 265 244 255 c 0
 266 248 281 245 293 245 c 0
 308 245 318 250 328 261 c 0
 336 269 339 276 339 285 c 0
 339 292 337 301 334 313 c 0
 329 332 325 364 325 384 c 2
 325 420 l 1xb0
EndSplineSet
Validated: 1
EndChar

StartChar: B
Encoding: 66 66 10
Width: 540
VWidth: 0
Flags: W
HStem: 14 59<8.28707 80.3245 191.627 369.285> 320 26<200.483 312.012> 550 43<279.033 377.612> 573 26<74.1003 110.673 173 222.07>
VStem: 141 30<370.599 543.818> 422 59<392.531 508.893> 423 81<119.759 242.777>
LayerCount: 2
Fore
SplineSet
177 599 m 0xda
 190 599 202 595 218 588 c 0
 240 578 251 569 251 564 c 0
 251 561 247 559 239 559 c 0
 232 559 225 564 222 570 c 0
 221 572 220 573 218 573 c 0xda
 213 573 205 567 194 554 c 0
 174 531 171 519 171 464 c 0
 171 377 176 366 215 353 c 0
 228 348 241 346 256 346 c 0
 271 346 288 348 314 353 c 0
 390 367 409 385 419 449 c 0
 421 459 422 466 422 472 c 0
 422 488 414 496 391 518 c 0
 372 535 352 550 347 550 c 0
 318 550 270 570 270 582 c 0
 270 590 275 593 298 593 c 0
 306 593 317 593 331 592 c 0
 364 590 402 584 415 579 c 0
 454 563 481 503 481 447 c 0xec
 481 425 476 402 467 385 c 0
 456 365 451 349 451 336 c 0
 451 320 458 307 474 288 c 0
 494 264 500 248 503 197 c 0
 503 188 504 180 504 172 c 0
 504 116 490 88 456 62 c 0
 395 17 382 14 216 14 c 0
 129 14 50 15 39 17 c 0
 28 19 14 26 8 33 c 0
 5 37 3 42 3 46 c 0
 3 60 19 73 40 73 c 0
 81 73 105 120 113 217 c 0
 119 293 124 337 134 394 c 0
 139 422 141 448 141 471 c 0
 141 529 126 566 98 570 c 0
 87 572 76 578 74 585 c 0
 71 594 76 596 94 593 c 0xea
 98 592 104 592 111 592 c 0
 124 592 140 593 152 596 c 0
 161 598 169 599 177 599 c 0xda
228 320 m 0
 209 320 194 317 189 311 c 0
 180 300 176 264 176 223 c 0
 176 162 185 91 200 81 c 0
 209 75 229 73 253 73 c 0
 292 73 340 80 365 92 c 0
 404 111 423 142 423 185 c 0
 423 209 389 272 370 284 c 0
 336 305 271 320 228 320 c 0
EndSplineSet
Validated: 1
EndChar

StartChar: C
Encoding: 67 67 11
Width: 540
VWidth: 0
Flags: W
HStem: 23 68<192.193 323.72>
VStem: 57 70<173.172 459.506> 396 70<412.157 512.447>
LayerCount: 2
Fore
SplineSet
256 616 m 4
 261 615 295 608 332 600 c 4
 362 594 392 589 409 589 c 4
 413 589 417 589 419 590 c 4
 422 591 426 591 429 591 c 4
 447 591 454 576 454 543 c 4
 454 538 454 533 454 528 c 4
 454 525 454 523 454 520 c 4
 454 501 457 476 461 462 c 4
 464 451 466 440 466 430 c 4
 466 406 458 388 445 388 c 4
 429 388 396 439 396 463 c 4
 396 492 369 528 327 553 c 6
 286 578 l 5
 241 555 l 6
 191 530 161 495 138 436 c 4
 130 415 127 393 127 356 c 4
 127 340 127 322 128 299 c 4
 132 213 135 196 156 160 c 4
 187 107 210 91 256 91 c 4
 310 91 351 123 386 194 c 4
 406 235 420 253 431 253 c 4
 456 253 470 229 470 197 c 4
 470 176 464 151 451 126 c 4
 426 77 407 57 375 40 c 4
 354 29 308 23 269 23 c 4
 246 23 225 25 212 30 c 4
 158 50 120 81 91 130 c 4
 63 177 61 186 58 277 c 4
 57 291 57 305 57 319 c 4
 57 358 59 394 63 408 c 4
 68 427 76 457 81 477 c 4
 93 524 160 591 210 606 c 4
 229 611 247 616 254 616 c 4
 255 616 256 616 256 616 c 4
EndSplineSet
Validated: 1
EndChar

StartChar: D
Encoding: 68 68 12
Width: 540
VWidth: 0
Flags: W
HStem: 16 75<50.2305 117.935> 16 67<116.206 333.066> 544 43<55.0351 135.594> 553 30<205.178 287.438>
VStem: 124 74<95.5 438.806> 146 52<234.362 533.574> 436 80<185.273 451>
LayerCount: 2
Fore
SplineSet
49 22 m 0x56
 41 27 38 33 38 41 c 0
 38 63 64 91 94 91 c 0
 113 91 124 116 124 154 c 0x8a
 124 161 124 168 123 176 c 0
 122 184 122 193 122 201 c 0
 122 217 123 231 126 236 c 0
 134 251 144 352 146 453 c 0
 146 459 146 464 146 469 c 0
 146 525 135 537 90 544 c 0
 67 548 55 555 55 565 c 0
 55 571 59 579 69 587 c 0xa6
 77 593 107 596 137 596 c 0
 170 596 203 593 210 586 c 0
 212 584 216 583 223 583 c 0x16
 232 583 243 585 255 587 c 0x26
 264 589 276 590 288 590 c 0
 303 590 318 588 329 586 c 0
 342 583 355 582 363 582 c 0
 367 582 370 582 371 583 c 0
 372 583 373 584 374 584 c 0
 390 584 441 536 473 490 c 0
 500 450 506 433 512 371 c 0
 515 343 516 317 516 293 c 0
 516 142 463 50 356 23 c 0
 336 18 257 16 183 16 c 0
 117 16 57 18 49 22 c 0x56
306 94 m 0
 363 113 393 138 415 185 c 0
 434 226 436 243 436 341 c 2
 436 451 l 1
 410 477 l 2
 395 491 377 509 371 517 c 0
 365 525 345 534 326 537 c 0
 307 540 286 545 279 548 c 0
 272 551 263 553 253 553 c 0
 231 553 207 545 202 534 c 0
 199 526 198 448 198 361 c 0
 198 245 200 114 204 107 c 0
 210 97 243 83 261 83 c 0x5a
 268 83 289 88 306 94 c 0
EndSplineSet
Validated: 1
EndChar

StartChar: E
Encoding: 69 69 13
Width: 540
VWidth: 0
Flags: W
HStem: 0 67<227.9 414.776> 287 57<212.516 295.07> 439 20G<334.5 342> 522 52<0.65625 118.624> 539 37<19.7439 141.607 197.3 273.719> 541 27<378.026 428.66>
VStem: 145 42<364.868 525.652> 306 62<180.589 284.338> 322 32<382.411 458.948> 432 83<85.8023 198.043> 448 51<389.761 534.048>
LayerCount: 2
Fore
SplineSet
58 -2 m 0xe640
 39 3 30 12 30 21 c 0
 30 34 47 49 80 61 c 0
 103 69 124 79 128 82 c 0
 133 87 145 353 145 462 c 0
 145 473 145 484 145 491 c 0
 144 525 139 539 119 539 c 0xea40
 111 539 101 537 88 533 c 0
 67 527 41 522 30 522 c 0
 17 522 9 517 6 503 c 0
 4 492 2 503 1 528 c 2
 0 574 l 1xf240
 65 576 l 2
 77 576 90 576 102 576 c 0
 126 576 148 576 158 576 c 0
 170 576 180 575 190 575 c 0
 211 575 229 577 256 580 c 0
 262 581 268 581 274 581 c 0
 286 581 296 579 298 576 c 0xea40
 302 570 310 570 323 578 c 0
 338 587 344 588 353 579 c 0
 357 575 359 571 359 568 c 0
 359 556 333 548 276 544 c 0
 235 541 203 533 197 526 c 0
 191 519 187 485 187 450 c 0
 188 397 191 382 208 364 c 0
 221 350 236 344 251 344 c 0
 274 344 296 359 311 389 c 0
 318 402 322 418 322 430 c 0
 322 432 322 434 322 436 c 0
 322 437 322 438 322 439 c 0
 322 451 330 459 339 459 c 0
 345 459 351 456 354 448 c 0xe6c0
 360 431 368 299 368 232 c 0
 368 214 367 200 366 195 c 0
 362 179 354 173 345 173 c 0
 327 173 306 200 306 237 c 0xe7
 306 271 295 287 269 287 c 0
 262 287 254 286 245 284 c 2
 212 276 l 1
 209 206 l 2
 209 198 208 191 208 184 c 0
 208 150 212 123 219 106 c 0
 231 78 235 75 286 69 c 0
 297 68 310 67 322 67 c 0
 344 67 366 69 381 73 c 0
 424 84 432 100 432 165 c 0xe6c0
 432 203 449 225 467 225 c 0
 478 225 490 217 499 199 c 0xe620
 509 179 515 132 515 90 c 0
 515 60 512 33 506 21 c 0
 495 2 488 1 384 0 c 0
 324 0 230 -1 176 -3 c 0
 152 -4 127 -4 107 -4 c 0
 82 -4 64 -4 58 -2 c 0xe640
454 398 m 0
 450 404 448 432 448 461 c 0
 448 463 448 465 448 467 c 0
 448 521 435 541 400 541 c 0
 387 541 378 546 378 554 c 0
 378 561 385 568 392 568 c 0
 399 568 413 572 422 578 c 0
 428 581 432 583 437 583 c 0
 444 583 451 580 462 573 c 0
 490 554 495 540 498 456 c 0
 498 445 499 436 499 428 c 0xe620
 499 396 495 392 480 390 c 0
 469 388 458 392 454 398 c 0
EndSplineSet
Validated: 1
EndChar

StartChar: F
Encoding: 70 70 14
Width: 540
VWidth: 0
Flags: W
HStem: 7 75<65.9817 156.102 222.576 338.327> 7 65<48.3354 150.443> 291 66<229.511 316.315> 439 20G<355 366> 547 48<49.1964 142.25> 557 40<220.448 468>
VStem: 161 56<84.9148 265.561> 178 29<386.832 482.917> 328 50<176.286 284.278> 333 54<365.777 456.929> 472 46<407.738 556.409>
LayerCount: 2
Fore
SplineSet
413 597 m 0x3520
 420 597 426 597 432 597 c 0
 494 597 498 592 508 566 c 0
 513 551 518 524 518 502 c 0
 518 500 518 498 518 496 c 0
 517 474 515 445 514 431 c 0
 513 415 506 407 498 407 c 0
 491 407 482 414 477 428 c 0
 474 436 472 448 472 460 c 0
 472 467 473 475 474 481 c 0
 476 489 476 500 476 510 c 0
 476 520 476 529 474 535 c 2
 468 557 l 1
 351 555 l 2
 274 553 229 548 220 541 c 0
 211 534 207 521 207 497 c 0
 207 480 209 457 213 426 c 0
 218 387 223 376 242 366 c 0
 253 360 266 357 272 357 c 0
 273 357 273 357 274 357 c 0
 279 358 294 362 308 365 c 0
 328 369 333 375 333 398 c 0
 333 435 348 459 362 459 c 0
 370 459 377 451 381 432 c 0
 385 412 387 362 387 312 c 0x3560
 387 246 384 179 378 176 c 0
 373 173 369 172 364 172 c 0
 347 172 332 189 328 215 c 0
 319 275 312 291 294 291 c 0
 292 291 291 291 289 291 c 0
 287 291 285 290 283 290 c 0
 273 290 261 294 255 299 c 0
 244 308 240 308 229 297 c 0
 222 290 216 275 216 266 c 0
 216 257 217 224 217 194 c 0
 217 164 219 127 221 112 c 0
 225 86 229 84 272 78 c 0
 326 71 351 60 351 42 c 0
 351 19 318 10 228 10 c 0
 180 10 122 8 100 7 c 0
 97 7 95 7 93 7 c 0xb6a0
 72 7 55 11 48 18 c 0
 42 24 39 30 39 36 c 0
 39 43 44 50 55 55 c 0
 62 58 77 66 88 72 c 0x72a0
 99 78 116 82 125 82 c 0
 148 82 161 100 161 132 c 0xb2a0
 161 146 166 187 172 222 c 0
 176 246 178 274 178 308 c 0
 178 337 176 370 174 410 c 2
 166 535 l 1
 109 547 l 2
 64 556 47 561 47 568 c 0
 47 572 51 576 59 582 c 0
 72 592 105 595 194 595 c 0xb920
 258 595 339 595 374 596 c 0
 389 596 401 597 413 597 c 0x3520
EndSplineSet
Validated: 1
EndChar

StartChar: G
Encoding: 71 71 15
Width: 540
VWidth: 0
Flags: W
HStem: 21 52<187.465 294.966> 24 255<365.035 440.666> 218 61<454 528.617> 555 38<196.281 302.632>
VStem: 32 63<189 414.779> 365 85<145.562 212> 392 49<435.838 471>
LayerCount: 2
Fore
SplineSet
278 593 m 0x9a
 280 593 282 593 284 593 c 0
 306 593 320 588 342 577 c 0
 362 567 373 562 382 562 c 0
 388 562 394 564 401 568 c 0
 411 574 420 576 427 576 c 0
 440 576 447 568 447 552 c 0
 447 548 447 544 446 539 c 0
 443 523 441 492 441 471 c 0
 441 467 441 464 441 461 c 0
 441 437 437 433 424 433 c 0
 413 433 401 443 392 460 c 0x9a
 375 493 321 533 273 549 c 0
 261 553 251 555 241 555 c 0
 215 555 193 539 159 498 c 0
 123 454 95 363 95 296 c 0
 95 282 96 269 99 258 c 0
 124 150 135 129 177 101 c 0
 200 86 229 73 240 73 c 0
 285 73 347 131 364 187 c 0
 365 190 365 192 365 195 c 0
 365 205 358 214 340 227 c 0
 324 238 309 248 307 250 c 0
 305 252 311 261 320 271 c 0
 329 281 338 286 349 286 c 0
 352 286 355 286 359 285 c 0
 372 282 411 280 446 279 c 0
 505 278 536 268 536 252 c 0
 536 248 534 243 529 238 c 0
 521 230 502 221 485 218 c 2
 454 212 l 1
 450 125 l 2xbc
 448 77 443 36 441 34 c 0
 434 28 419 24 405 24 c 0x5a
 393 24 380 27 373 32 c 0
 365 38 360 40 353 40 c 0
 346 40 338 38 325 32 c 0
 307 24 277 21 246 21 c 0
 212 21 177 25 158 35 c 0
 143 43 128 51 126 54 c 0
 124 57 111 67 97 76 c 0
 82 85 72 100 72 111 c 0
 72 122 63 140 52 152 c 0
 33 172 32 181 32 301 c 0
 32 311 32 320 32 328 c 0
 32 444 35 445 112 526 c 0
 156 572 181 583 250 591 c 0
 261 592 270 593 278 593 c 0x9a
EndSplineSet
Validated: 1
EndChar

StartChar: H
Encoding: 72 72 16
Width: 540
VWidth: 0
Flags: W
HStem: 11 75<158 225.504 463.931 514.771> 18 54<3.4617 76.0913> 19 67<158 228.621> 298 55<166.579 388.335> 541 58<310.66 386.716>
VStem: 95 54<365.421 532.181> 400 55<108.497 294.409 365.054 527>
LayerCount: 2
Fore
SplineSet
106 603 m 0x5e
 110 603 114 603 118 603 c 0
 147 603 177 600 201 594 c 0
 222 588 232 579 232 570 c 0
 232 561 222 552 200 545 c 0
 156 531 152 523 150 447 c 0
 150 435 149 425 149 416 c 0
 149 382 153 374 166 365 c 0
 178 357 213 353 258 353 c 0
 285 353 315 355 344 358 c 0
 382 362 387 365 395 391 c 0
 399 405 401 426 401 448 c 0
 401 482 396 518 387 528 c 0
 381 535 371 541 364 541 c 0
 347 541 306 560 306 569 c 0
 306 586 352 599 415 599 c 0
 419 599 424 599 428 599 c 0
 499 597 538 585 538 570 c 0
 538 561 524 551 494 541 c 2
 454 527 l 1
 455 328 l 2
 456 108 460 82 486 82 c 0
 496 82 509 74 516 64 c 0
 523 54 531 49 534 52 c 0
 537 55 540 51 540 43 c 0
 540 18 509 10 417 10 c 0
 334 10 306 17 306 39 c 0
 306 43 326 55 351 68 c 0
 394 90 396 94 397 130 c 0
 399 187 400 225 400 250 c 0
 400 271 399 282 398 287 c 0
 395 295 364 298 283 298 c 0
 186 298 170 296 163 282 c 0
 159 274 156 237 156 195 c 0
 156 189 156 182 156 176 c 2
 158 86 l 1
 182 86 l 2x9e
 208 86 243 59 243 40 c 0
 243 34 236 24 226 19 c 0x3e
 216 14 168 11 121 11 c 0x9e
 78 11 36 13 22 18 c 0
 12 21 4 32 3 42 c 0
 3 43 3 44 3 45 c 0
 3 58 10 65 36 72 c 0
 76 84 80 90 86 130 c 0
 91 164 95 325 95 424 c 0
 95 463 94 493 93 501 c 0
 89 524 81 532 44 546 c 0
 20 555 0 568 0 573 c 0
 0 590 51 601 106 603 c 0x5e
EndSplineSet
Validated: 1
EndChar

StartChar: I
Encoding: 73 73 17
Width: 540
VWidth: 0
Flags: W
HStem: -34 83<54.2656 196.798 289.433 428.632> 498 63<280.75 430.906> 505 56<59.1847 204.513>
VStem: 216 64<183.599 413.083>
LayerCount: 2
Fore
SplineSet
58 -23 m 0xd0
 50 -17 46 -10 46 -1 c 0
 46 3 47 8 48 13 c 0
 55 39 70 45 143 49 c 0
 169 51 193 57 197 63 c 0
 204 73 216 312 216 414 c 0
 216 421 216 427 216 433 c 0
 215 491 198 505 130 505 c 0
 82 505 56 515 56 530 c 0
 56 535 59 541 66 548 c 0
 76 558 96 561 180 561 c 0
 194 561 209 561 227 561 c 0xb0
 393 560 441 554 441 536 c 0
 441 517 398 498 362 498 c 0
 358 498 354 498 350 499 c 0
 344 500 339 500 334 500 c 0
 318 500 306 496 292 485 c 2
 268 466 l 1
 276 339 l 2
 279 286 280 225 280 185 c 0
 280 173 280 163 280 155 c 0
 280 151 280 148 280 144 c 0
 280 95 292 47 305 45 c 0
 308 45 334 44 362 43 c 0
 411 41 438 30 438 10 c 0
 438 5 436 0 433 -6 c 0
 420 -31 403 -33 229 -34 c 0
 116 -34 70 -32 58 -23 c 0xd0
EndSplineSet
Validated: 1
EndChar

StartChar: J
Encoding: 74 74 18
Width: 540
VWidth: 0
Flags: W
HStem: 6 71<127.261 238.776> 588 20G<387.5 433>
VStem: 18 99<91.7874 158> 286 82<125.194 413.766 414.281 535.805> 286 68<359.566 475.766>
LayerCount: 2
Fore
SplineSet
399 608 m 0xf0
 467 608 473 604 492 589 c 0
 506 578 512 573 512 568 c 0
 512 564 508 560 500 554 c 0
 489 546 463 541 434 541 c 0
 387 541 386 540 373 509 c 0
 367 495 365 485 365 476 c 0
 365 471 366 466 368 462 c 0xf0
 374 451 373 443 363 432 c 0
 357 426 354 420 354 414 c 0xe8
 354 409 356 404 359 398 c 0
 364 388 369 371 369 359 c 0
 369 347 368 304 368 262 c 0
 368 131 337 55 276 29 c 0
 241 14 208 6 181 6 c 0
 174 6 168 6 162 7 c 0
 111 15 80 31 50 65 c 0
 23 95 18 106 18 141 c 0
 18 175 23 188 44 209 c 0
 62 227 89 236 114 236 c 0
 135 236 155 230 169 217 c 0
 182 205 188 194 188 184 c 0
 188 170 177 156 153 143 c 0
 133 132 117 117 117 111 c 0
 117 105 132 94 150 86 c 0
 165 80 174 77 183 77 c 0
 193 77 202 81 219 88 c 0
 277 114 281 133 286 349 c 2
 290 540 l 1
 251 545 l 2
 229 548 196 551 176 552 c 0
 149 554 138 559 136 571 c 0
 134 580 137 591 142 596 c 0
 147 601 222 606 309 607 c 0
 348 608 376 608 399 608 c 0xf0
EndSplineSet
Validated: 1
EndChar

StartChar: K
Encoding: 75 75 19
Width: 540
VWidth: 0
Flags: W
HStem: 17 65<228.234 292.831> 546 32<488.985 538.874> 547 43<482.775 532.608> 550 51<88.25 169.991>
VStem: 154 62<122.277 255.445> 170 40<352.375 541>
LayerCount: 2
Fore
SplineSet
94 17 m 0xa8
 67 22 54 34 54 48 c 0
 54 62 67 78 95 92 c 0
 118 103 139 117 142 122 c 0
 145 127 151 190 154 262 c 0xa8
 157 334 163 428 167 471 c 0
 169 497 170 515 170 527 c 0
 170 548 167 550 157 550 c 0
 134 550 81 570 81 579 c 0
 81 593 123 601 167 601 c 0x94
 196 601 226 598 246 590 c 0
 255 587 259 583 259 579 c 0
 259 574 251 567 233 557 c 2
 206 541 l 1
 210 462 l 2
 212 418 218 374 224 363 c 2
 235 343 l 1
 274 375 l 2
 327 418 414 518 414 535 c 0
 414 543 405 554 394 560 c 2
 374 571 l 1
 400 582 l 2
 414 588 438 590 462 590 c 0xa4
 493 590 525 586 533 578 c 0
 537 574 539 569 539 564 c 0
 539 555 532 546 523 546 c 0xc4
 521 546 520 546 518 547 c 0
 518 547 518 547 517 547 c 0
 493 547 342 399 342 374 c 0
 342 364 352 342 364 325 c 0
 376 308 387 290 387 285 c 0
 387 280 399 259 414 240 c 0
 429 221 441 200 441 194 c 0
 441 178 497 98 520 79 c 0
 533 68 540 52 540 39 c 0
 540 28 535 19 524 16 c 0
 518 14 505 14 486 14 c 0
 460 14 422 15 376 18 c 0
 360 19 351 27 351 37 c 0
 351 47 359 59 374 71 c 0
 388 82 395 93 395 105 c 0
 395 116 390 128 379 144 c 0
 369 157 359 180 355 194 c 0
 351 208 339 233 329 249 c 0
 319 265 306 286 301 295 c 0
 298 301 295 304 291 304 c 0
 284 304 274 295 253 272 c 0
 218 235 216 231 216 181 c 0
 216 116 230 82 256 82 c 0
 267 82 283 76 293 69 c 0
 310 56 310 56 292 38 c 0
 277 23 261 20 194 17 c 0
 172 16 149 16 131 16 c 0
 113 16 99 16 94 17 c 0xa8
EndSplineSet
Validated: 1
EndChar

StartChar: L
Encoding: 76 76 20
Width: 540
VWidth: 0
Flags: W
HStem: 3 65<266.655 461.001> 19 52<0.0711441 93.6684> 528 51<40.7172 138.727>
VStem: 160 83<84.3871 303.876> 468 40<78.3226 198.508>
LayerCount: 2
Fore
SplineSet
127 579 m 0x78
 209 579 261 572 261 558 c 0
 261 553 249 542 234 534 c 2
 206 518 l 1
 212 438 l 2
 222 285 225 248 234 194 c 0
 239 164 243 132 243 121 c 0
 243 110 254 93 266 83 c 0
 280 72 292 68 327 68 c 0
 339 68 353 68 371 69 c 0
 425 71 455 76 460 84 c 0
 464 90 468 114 468 136 c 0
 468 179 477 199 486 199 c 0
 496 199 507 172 508 122 c 0
 509 74 512 60 526 50 c 0
 537 42 539 37 531 37 c 0
 524 37 511 30 501 21 c 0
 487 8 464 5 388 3 c 0xb8
 335 2 244 -1 184 -3 c 0
 167 -3 151 -4 137 -4 c 0
 90 -4 59 -1 40 6 c 0
 21 13 3 19 2 19 c 0
 1 19 0 30 0 44 c 0
 0 68 3 69 43 71 c 0
 136 75 152 81 157 112 c 0
 159 124 160 181 160 253 c 0
 160 277 160 303 160 329 c 2
 158 517 l 1
 105 528 l 2
 57 538 34 549 34 559 c 0
 34 570 66 579 127 579 c 0x78
EndSplineSet
Validated: 1
EndChar

StartChar: M
Encoding: 77 77 21
Width: 540
VWidth: 0
Flags: W
HStem: 1 49<519.397 531.953> 10 53<384.437 455.827> 444 32<198.003 219.996> 476 20G<118 122.5> 498 83<451.505 506.827> 515 76<91.7348 164.312> 546 45<40.7385 109.831>
VStem: 93 50<93.3777 436.778> 105 26<295.23 494.947> 198 22<444.097 475.903> 226 40<210.089 350.164> 252 90<31.3694 136.421> 477 38<166.964 495.682>
LayerCount: 2
Fore
SplineSet
405 10 m 0x4068
 389 14 381 22 381 31 c 0
 381 42 394 55 420 63 c 0
 462 76 463 78 472 186 c 0
 476 230 477 304 477 369 c 0
 477 434 476 490 472 496 c 0
 471 498 469 498 468 498 c 0
 455 498 431 431 418 361 c 0
 411 323 399 274 391 252 c 0
 383 230 371 178 364 137 c 0
 357 96 347 54 342 45 c 0
 333 28 310 13 295 13 c 0
 292 13 289 14 287 15 c 0
 270 25 252 80 252 120 c 0x5858
 252 141 247 174 242 194 c 0
 237 214 230 260 228 296 c 0
 227 315 226 329 226 338 c 0
 226 352 228 357 232 357 c 0
 234 357 238 355 242 353 c 0
 255 346 261 330 266 287 c 0
 272 233 292 184 307 184 c 0
 308 184 308 184 309 184 c 0
 318 187 334 226 351 289 c 0
 357 311 365 340 369 352 c 0
 373 364 381 393 387 415 c 0
 412 507 434 567 444 575 c 0
 449 579 469 581 488 581 c 0
 502 581 516 580 522 577 c 0
 524 576 529 575 533 576 c 0
 534 576 l 0
 538 576 540 569 540 560 c 0
 540 548 536 532 530 530 c 0
 523 528 518 463 516 311 c 0
 515 263 515 224 515 191 c 0
 515 86 519 50 529 50 c 0
 530 50 531 50 532 51 c 0
 537 54 540 44 540 29 c 2
 540 1 l 1x9868
 484 2 l 2
 453 3 417 7 405 10 c 0x4068
123 20 m 0
 115 24 104 28 95 28 c 0
 94 28 93 28 92 28 c 0
 86 27 73 27 60 27 c 0
 54 27 49 27 43 27 c 0
 21 28 9 34 9 42 c 0
 9 50 19 60 39 68 c 0
 55 75 73 87 78 93 c 0
 83 100 90 175 93 266 c 0x1148
 96 355 102 443 105 462 c 0
 109 484 115 496 121 496 c 0
 124 496 128 493 131 485 c 0x10c8
 138 467 143 358 143 222 c 0x1148
 143 153 147 90 151 84 c 0
 155 78 171 69 185 65 c 0
 202 61 208 55 208 45 c 0
 208 44 208 43 208 41 c 0
 204 20 209 23 171 17 c 0
 164 16 157 15 150 15 c 0
 139 15 129 17 123 20 c 0
198 460 m 0
 198 472 202 478 209 476 c 0
 215 474 220 467 220 460 c 0
 220 453 215 446 209 444 c 0x2048
 202 442 198 448 198 460 c 0
109 525 m 0
 103 531 85 541 69 546 c 0x0248
 50 552 40 562 40 573 c 0
 40 588 48 591 104 591 c 0
 150 591 169 587 177 577 c 0
 183 569 187 564 187 559 c 0
 187 552 179 546 159 533 c 0
 139 521 130 515 124 515 c 0x0448
 119 515 115 519 109 525 c 0
EndSplineSet
Validated: 1
EndChar

StartChar: N
Encoding: 78 78 22
Width: 540
VWidth: 0
Flags: W
HStem: 10 21G<61 99> 18 71<3.49414 58.3045> 26 57<149.106 226.738> 540 66<4.29795 68> 549 51<311.64 383.719 446.429 510.59>
VStem: 71 58<190.687 507.516> 392 42<193.288 529.433>
LayerCount: 2
Fore
SplineSet
11 18 m 0x46
 5 22 1 33 1 47 c 0
 1 50 2 53 2 56 c 0
 4 80 9 87 25 89 c 0
 62 94 71 110 71 246 c 0
 71 271 70 301 70 335 c 2
 68 536 l 1
 45 540 l 2
 16 544 0 557 0 578 c 0
 0 602 12 606 79 606 c 0x56
 137 606 140 605 164 576 c 0
 178 559 194 530 199 510 c 0
 204 490 214 468 221 460 c 0
 228 452 239 428 247 406 c 0
 255 384 266 362 271 356 c 0
 281 344 314 285 336 239 c 0
 349 212 370 191 380 191 c 0
 382 191 383 192 384 193 c 0
 389 198 392 277 392 357 c 0
 392 437 389 519 384 530 c 0
 378 544 372 549 355 549 c 0
 351 549 347 548 343 548 c 0
 338 548 333 547 329 547 c 0
 312 547 310 552 310 568 c 0
 310 593 330 600 416 600 c 0
 422 600 429 600 436 600 c 0
 508 599 508 600 511 575 c 0
 512 571 512 567 512 564 c 0
 512 552 506 550 488 550 c 0
 474 550 455 544 446 538 c 0
 438 532 434 525 434 480 c 0
 434 445 436 388 440 291 c 0
 443 210 446 151 446 110 c 0
 446 27 437 11 412 11 c 0
 409 11 405 12 401 12 c 0
 372 15 378 5 267 235 c 0
 256 257 248 281 247 289 c 0
 246 297 237 318 226 338 c 0
 215 358 207 379 207 385 c 0
 207 391 192 421 174 452 c 2
 140 508 l 1
 132 477 l 2
 130 469 129 444 129 412 c 0
 129 303 140 101 149 92 c 0
 151 90 170 86 191 83 c 0
 217 79 231 70 231 59 c 0
 231 49 220 37 198 26 c 0x2e
 178 16 122 10 76 10 c 0x86
 46 10 20 12 11 18 c 0x46
EndSplineSet
Validated: 1
EndChar

StartChar: O
Encoding: 79 79 23
Width: 540
VWidth: 0
Flags: W
HStem: -26 69<194.188 297.328> 533 17<248.554 265.483>
VStem: 32 70<161.285 412.379> 390 55<148.233 402.168>
LayerCount: 2
Fore
SplineSet
147 0 m 0
 60 63 32 133 32 276 c 0
 32 355 35 372 58 422 c 0
 89 489 149 550 184 550 c 0
 186 550 189 550 191 549 c 0
 192 549 205 553 218 558 c 0
 234 564 245 564 248 559 c 0
 251 554 267 550 284 550 c 0
 338 550 418 461 436 379 c 0
 442 354 445 294 445 245 c 0
 445 215 444 189 441 178 c 0
 424 111 402 67 371 34 c 0
 329 -10 292 -26 231 -26 c 0
 192 -26 176 -21 147 0 c 0
323 85 m 0
 371 129 388 181 390 281 c 0
 390 286 390 292 390 297 c 0
 390 341 386 373 381 380 c 0
 375 387 367 407 361 424 c 0
 349 461 304 514 284 514 c 0
 277 514 268 520 264 527 c 0
 262 531 259 533 254 533 c 0
 246 533 234 527 209 513 c 0
 183 498 157 476 153 465 c 0
 149 454 139 442 132 439 c 0
 117 433 102 342 102 274 c 0
 102 260 103 248 104 237 c 0
 115 150 157 81 220 48 c 0
 226 45 233 43 240 43 c 0
 264 43 294 58 323 85 c 0
EndSplineSet
Validated: 1
EndChar

StartChar: P
Encoding: 80 80 24
Width: 540
VWidth: 0
Flags: W
HStem: -20 75<29.4467 116.18 202 229> -13 68<20.5469 116.18 223.6 308.583> 224 70<234.755 407.908> 230 52<200.107 337.483> 505 57<285.807 404.613> 523 43<56.2171 124.115> 528 21<254.211 313.217> 532 27<203.071 222.84>
VStem: 143 44<284.712 509.113> 450 54<336.034 468.631>
LayerCount: 2
Fore
SplineSet
29 -13 m 0x40c0
 16 -6 10 -3 10 4 c 0
 10 9 13 16 18 28 c 0
 28 52 33 55 63 55 c 0
 82 55 104 61 111 68 c 0
 130 87 143 202 143 311 c 0
 143 362 140 411 134 450 c 0
 124 512 121 523 102 523 c 0
 100 523 98 523 96 523 c 0
 88 522 82 522 77 522 c 0
 59 522 54 526 54 537 c 0
 54 555 85 566 133 566 c 0x84c0
 142 566 152 566 162 565 c 0
 194 562 222 559 223 559 c 0
 230 558 224 532 216 532 c 0
 198 532 187 475 187 383 c 0
 187 365 187 347 188 327 c 0
 189 295 192 289 211 284 c 0
 217 283 223 282 228 282 c 0x11c0
 234 282 240 283 243 285 c 0
 249 289 284 293 321 294 c 0
 384 296 390 298 419 326 c 0
 445 352 450 361 450 398 c 0
 450 449 444 469 427 469 c 0
 420 469 409 477 403 487 c 0
 397 497 383 505 372 505 c 0x28c0
 361 505 349 510 346 515 c 0
 343 520 334 522 327 519 c 0
 320 516 309 517 303 521 c 0
 297 525 284 528 275 528 c 0
 266 528 256 532 254 539 c 0
 251 547 256 550 267 549 c 0x02c0
 276 548 290 549 297 552 c 0
 315 559 334 562 351 562 c 0
 401 562 445 534 481 480 c 0
 498 453 504 441 504 412 c 0
 504 405 504 396 503 386 c 0
 499 316 470 275 405 243 c 0
 377 229 363 224 338 224 c 0x28c0
 327 224 314 225 296 227 c 0
 273 229 250 230 234 230 c 0
 225 230 219 230 216 229 c 0
 202 225 194 199 194 158 c 0
 194 144 195 127 197 109 c 2
 202 60 l 1
 256 51 l 2
 302 43 311 38 313 21 c 0
 313 19 313 17 313 15 c 0
 313 4 307 -3 291 -9 c 0
 273 -16 196 -20 130 -20 c 0x90c0
 81 -20 38 -18 29 -13 c 0x40c0
EndSplineSet
Validated: 1
EndChar

StartChar: Q
Encoding: 81 81 25
Width: 540
VWidth: 0
Flags: W
HStem: -156 72<383.314 459.96> -11 49<215.219 278.279> -11 20G<512 520> 137 48<182.6 275.717> 468 20G<125.5 135> 532 18<306.003 323.997>
VStem: 61 31<180.825 344.109> 92 49<410.363 471.283> 153 23<513.932 519.734> 306 18<532.003 549.997> 427 31<259.844 362.869>
LayerCount: 2
Fore
SplineSet
315 550 m 0x9ce0
 320 550 324 546 324 541 c 0
 324 536 320 532 315 532 c 0
 310 532 306 536 306 541 c 0
 306 546 310 550 315 550 c 0x9ce0
348 532 m 0
 349 532 l 0
 357 532 374 520 393 500 c 0
 415 476 423 460 423 437 c 0
 423 420 421 406 419 406 c 0
 417 406 406 426 395 451 c 0
 384 476 368 501 359 506 c 0
 350 511 342 518 342 523 c 0
 342 529 344 532 348 532 c 0
170 522 m 0
 172 522 174 523 176 521 c 0
 178 519 175 511 167 505 c 0
 158 498 153 497 153 503 c 0
 153 511 163 521 170 522 c 0
134 488 m 0
 136 488 138 487 140 485 c 0
 141 484 141 483 141 480 c 0
 141 464 126 418 114 402 c 0
 105 389 100 388 95 397 c 0
 93 401 92 406 92 411 c 0x9de0
 92 440 117 488 134 488 c 0
436 367 m 0
 437 367 l 0
 444 367 451 348 458 314 c 0
 462 295 464 277 464 259 c 0
 464 208 447 157 408 78 c 0
 382 25 373 3 373 -17 c 0
 373 -24 374 -31 376 -39 c 0
 382 -68 388 -76 410 -82 c 0
 415 -83 419 -84 423 -84 c 0
 445 -84 462 -66 488 -18 c 0
 498 0 508 9 516 9 c 0xbee0
 524 9 531 1 533 -15 c 0
 534 -22 534 -27 534 -33 c 0
 534 -60 524 -80 495 -113 c 0
 470 -142 446 -156 419 -156 c 0
 413 -156 406 -156 400 -154 c 0
 361 -145 325 -97 316 -44 c 0
 311 -15 307 -12 277 -11 c 0
 194 -8 107 46 94 103 c 0
 71 196 61 256 61 293 c 0
 61 312 64 325 69 333 c 0
 76 345 83 353 85 351 c 0
 87 349 90 313 92 271 c 0xdee0
 94 223 102 183 112 164 c 0
 121 147 125 141 130 141 c 0
 133 141 137 144 143 149 c 0
 152 157 165 163 171 163 c 0
 177 163 187 169 192 176 c 0
 197 182 202 185 214 185 c 0
 223 185 236 183 253 180 c 0
 298 172 305 167 318 140 c 0
 328 118 339 108 350 108 c 0
 382 108 414 198 427 342 c 0
 428 358 432 366 436 367 c 0
219 137 m 0
 215 137 210 137 206 137 c 0
 189 136 179 115 179 96 c 0
 179 79 186 64 202 64 c 0
 209 64 219 57 225 50 c 0
 232 42 236 38 242 38 c 0xdce0
 248 38 255 42 268 51 c 0
 283 61 290 74 290 86 c 0
 290 111 261 136 219 137 c 0
EndSplineSet
Validated: 1
EndChar

StartChar: R
Encoding: 82 82 26
Width: 540
VWidth: 0
Flags: W
HStem: -16 75<33.4227 95.469 181.576 255.043> 259 53<178.207 340.032> 514 53<316.702 381.643> 532 42<183.427 252.665>
VStem: 113 60<88.6706 246.937 312 494> 377 34<96 255> 423 58<371.5 470.736>
LayerCount: 2
Fore
SplineSet
33 -4 m 0xee
 23 6 18 15 18 23 c 0
 18 38 35 51 66 59 c 0
 82 63 94 74 99 88 c 0
 104 101 110 198 113 303 c 2
 118 494 l 1
 76 515 l 2
 44 531 27 545 27 557 c 0
 27 560 28 563 31 566 c 0
 34 569 82 572 139 573 c 0
 157 573 172 574 185 574 c 0
 230 574 246 571 253 562 c 0
 256 558 258 554 258 551 c 0
 258 540 243 532 219 532 c 0xde
 208 532 192 525 183 516 c 0
 173 506 169 498 169 466 c 0
 169 452 170 433 171 406 c 2
 176 312 l 1
 263 312 l 2
 324 312 354 316 365 325 c 0
 390 346 423 404 423 428 c 0
 423 453 370 514 349 514 c 0
 332 514 310 538 310 553 c 0
 310 555 310 557 311 559 c 0
 314 565 323 567 334 567 c 0
 358 567 395 554 418 535 c 0
 454 505 481 450 481 410 c 0
 481 405 481 400 480 396 c 0
 473 359 454 319 427 286 c 0
 416 272 411 265 411 255 c 0
 411 250 412 244 415 237 c 0
 420 224 427 209 431 204 c 0
 435 199 444 168 450 136 c 0
 458 97 469 71 483 57 c 0
 497 43 504 29 504 17 c 0
 504 -3 486 -17 454 -17 c 0
 407 -17 378 24 377 96 c 0
 375 210 375 208 342 236 c 0
 321 254 312 259 288 259 c 0
 278 259 265 258 248 257 c 0
 213 254 182 249 178 247 c 0
 175 246 173 223 173 193 c 0
 173 182 173 170 174 157 c 0
 177 67 183 55 221 55 c 0
 244 55 261 39 261 18 c 0
 261 -6 249 -9 145 -14 c 0
 118 -15 98 -16 83 -16 c 0
 52 -16 42 -13 33 -4 c 0xee
EndSplineSet
Validated: 1
EndChar

StartChar: S
Encoding: 83 83 27
Width: 540
VWidth: 0
Flags: W
HStem: 12 74<192.333 351.699> 49 78<137.508 185.383> 299 48<192.917 361.969> 536 46<203.329 360.539>
VStem: 72 47<402.872 494.316> 412 81<145.743 259.353> 418 47<406.998 477.242>
LayerCount: 2
Fore
SplineSet
202 23 m 0xbc
 177 29 149 38 139 44 c 0
 132 47 127 49 122 49 c 0
 115 49 109 46 100 40 c 0
 91 34 84 31 77 31 c 0
 71 31 65 33 57 36 c 0
 40 44 36 47 36 88 c 0
 36 100 37 116 37 136 c 0
 38 186 43 231 46 236 c 0
 50 242 56 245 62 245 c 0
 77 245 96 228 107 202 c 0
 123 161 150 127 166 127 c 0x7c
 172 127 182 119 190 110 c 0
 198 101 221 91 242 88 c 0
 252 86 262 86 272 86 c 0
 343 86 399 129 409 196 c 0
 411 209 412 218 412 225 c 0xbc
 412 241 406 247 386 263 c 0
 362 283 301 300 261 300 c 0
 255 300 249 300 244 299 c 0
 243 299 242 299 241 299 c 0
 233 299 221 302 212 306 c 0
 202 311 179 317 161 320 c 0
 143 323 126 332 123 339 c 0
 120 346 108 356 95 361 c 0
 74 369 72 374 72 423 c 0
 72 453 76 487 81 500 c 0
 91 527 133 568 152 568 c 0
 159 568 171 574 179 581 c 0
 186 587 193 590 203 590 c 0
 210 590 218 588 229 586 c 0
 240 584 249 582 257 582 c 0
 266 582 272 584 276 587 c 0
 282 592 290 594 295 591 c 0
 314 579 379 566 409 566 c 0
 415 566 420 567 422 568 c 0
 428 571 433 573 438 573 c 0
 456 573 462 546 464 478 c 0
 464 463 465 450 465 440 c 0
 465 406 462 399 454 399 c 0
 453 399 452 399 451 399 c 0
 443 401 428 418 418 439 c 0xba
 383 511 349 536 280 536 c 0
 275 536 269 536 263 536 c 0
 198 533 145 510 127 477 c 0
 122 467 119 461 119 454 c 0
 119 446 123 436 131 419 c 0
 146 390 156 382 203 365 c 0
 237 353 272 347 310 347 c 0
 313 347 316 347 319 347 c 0
 322 347 326 347 329 347 c 0
 362 347 384 342 389 336 c 0
 394 330 405 325 412 325 c 0
 419 325 439 311 455 294 c 0
 477 271 486 252 490 220 c 0
 492 201 493 184 493 170 c 0
 493 127 483 102 460 80 c 0
 445 66 432 51 432 47 c 0
 432 43 415 33 394 25 c 0
 371 17 336 12 300 12 c 0
 267 12 232 16 202 23 c 0xbc
EndSplineSet
Validated: 1
EndChar

StartChar: T
Encoding: 84 84 28
Width: 540
VWidth: 0
Flags: W
HStem: -13 75<109.125 205.81 314.34 424.271> 521 56<295 417.753> 536 40<104.253 252.538>
VStem: 16 75<350.025 448.155> 254 43<297.922 518> 425 81<319.927 514.756>
LayerCount: 2
Fore
SplineSet
130 -8 m 0xdc
 111 -4 103 2 101 16 c 0
 101 17 101 19 101 20 c 0
 101 42 129 62 158 62 c 0
 162 62 166 62 170 61 c 0
 175 60 180 60 184 60 c 0
 194 60 202 62 206 67 c 0
 211 73 221 157 229 253 c 0
 237 349 246 448 250 472 c 0
 252 485 254 495 254 504 c 0
 254 528 243 536 209 536 c 0
 199 536 188 535 174 534 c 0
 140 531 109 526 104 522 c 0
 99 518 93 473 91 423 c 0
 88 355 83 325 69 325 c 0
 61 325 50 334 36 352 c 0
 22 369 16 377 16 385 c 0
 16 390 19 395 23 401 c 0
 30 411 38 442 41 469 c 0
 47 517 65 550 84 550 c 0
 89 550 100 556 108 563 c 0
 116 570 134 576 149 576 c 0
 161 576 179 576 201 576 c 0xbc
 253 576 326 576 382 577 c 0
 422 578 460 578 466 578 c 0
 492 576 506 522 506 426 c 0
 506 328 501 316 466 316 c 0
 436 316 425 334 425 397 c 0
 425 405 426 414 426 424 c 0
 426 437 427 449 427 459 c 0
 427 492 424 510 418 515 c 0
 413 519 391 521 366 521 c 0
 361 521 356 521 351 521 c 2
 295 518 l 1
 297 424 l 2
 298 372 299 276 300 211 c 0
 301 130 306 89 314 79 c 0
 321 70 344 64 372 62 c 0
 413 60 419 57 427 35 c 0
 430 27 432 21 432 15 c 0
 432 -9 400 -12 285 -13 c 0
 215 -13 145 -11 130 -8 c 0xdc
EndSplineSet
Validated: 1
EndChar

StartChar: U
Encoding: 85 85 29
Width: 540
VWidth: 0
Flags: W
HStem: -26 69<213.793 346.161> 505 50<309.972 400.604 465.23 529.595> 512 54<162.421 216.071>
VStem: 63 94<106.152 221.895> 93 56<356.702 477.38> 392 66<89.6675 424.469> 405 53<200.708 496.803>
LayerCount: 2
Fore
SplineSet
193 -9 m 0xc4
 150 11 90 60 90 77 c 0
 90 83 84 101 77 115 c 0
 70 129 63 156 63 174 c 0
 63 201 68 211 90 226 c 0
 104 236 116 241 126 241 c 0
 142 241 153 228 157 203 c 0
 160 186 164 158 167 141 c 0
 176 84 225 43 280 43 c 0
 285 43 291 43 296 44 c 0
 328 49 340 56 371 89 c 0
 387 106 390 121 392 192 c 0xd4
 393 238 396 292 399 312 c 0
 402 332 404 380 405 419 c 0
 405 424 405 429 405 433 c 0xc2
 405 495 398 504 364 505 c 0
 336 505 306 515 306 524 c 0
 306 543 352 555 420 555 c 0
 425 555 430 555 435 555 c 0
 501 553 517 551 527 537 c 0
 532 530 535 524 535 519 c 0
 535 510 527 505 510 505 c 0
 499 505 482 500 473 493 c 0
 461 484 458 471 458 379 c 0
 458 361 458 339 458 313 c 0
 458 298 458 285 458 272 c 0
 458 114 446 70 399 23 c 0
 367 -9 321 -26 273 -26 c 0
 246 -26 218 -20 193 -9 c 0xc4
95 306 m 0
 86 316 81 336 81 356 c 0
 81 371 84 385 89 396 c 0
 92 400 93 406 93 413 c 0
 93 422 91 432 86 445 c 0
 71 488 60 499 29 500 c 0
 7 500 4 504 2 532 c 2
 -1 564 l 1
 87 566 l 2
 94 566 101 566 108 566 c 0
 184 566 220 556 220 532 c 0
 220 525 208 516 192 512 c 0
 159 504 154 488 149 388 c 0xa8
 146 325 135 292 117 292 c 0
 110 292 103 297 95 306 c 0
EndSplineSet
Validated: 1
EndChar

StartChar: V
Encoding: 86 86 30
Width: 540
VWidth: 0
Flags: W
HStem: 551 58<19.015 87 317.252 370.677> 560 43<462.825 539.991>
VStem: 116 59<497 539>
LayerCount: 2
Fore
SplineSet
244 42 m 0x60
 227 63 198 147 198 172 c 0
 198 187 144 417 135 438 c 0
 131 448 125 474 122 497 c 2
 116 539 l 1
 58 551 l 2
 26 557 0 565 0 569 c 0
 0 591 81 609 147 609 c 0xa0
 173 609 196 607 212 600 c 0
 229 593 243 583 243 578 c 0
 243 573 227 560 207 550 c 0
 185 539 175 534 175 517 c 0
 175 502 183 477 199 432 c 0
 208 404 216 377 216 370 c 0
 216 354 262 205 270 196 c 0
 270 195 271 195 272 195 c 0
 283 195 313 285 351 428 c 0
 364 477 371 506 371 523 c 0
 371 543 362 547 344 552 c 0
 324 557 315 565 315 576 c 0
 315 594 332 611 348 611 c 0
 351 611 353 611 355 610 c 0
 362 607 407 604 454 603 c 0
 538 601 540 601 540 580 c 0
 540 568 537 559 533 560 c 0
 532 560 530 560 528 560 c 0
 508 560 466 545 456 533 c 0
 443 518 427 469 414 402 c 0
 410 382 400 342 392 312 c 0
 384 282 371 234 364 204 c 0
 334 70 311 19 279 19 c 0
 270 19 254 29 244 42 c 0x60
EndSplineSet
Validated: 1
EndChar

StartChar: W
Encoding: 87 87 31
Width: 540
VWidth: 0
Flags: W
HStem: 438 20G<305.5 311.5> 487 61<288.719 318.489> 519 57<478.844 538.916> 522 36<4.48805 71.2619 110.388 152.769> 523 18<207.003 224.997 252.577 286.414>
VStem: 207 18<225.75 279.988 523.003 540.997> 253 5<400.144 420.891> 288 36<354.337 450.569> 320 104<10.2283 204.235> 438 26<405.145 492.886>
LayerCount: 2
Fore
SplineSet
485 576 m 0xa6c0
 486 576 488 576 489 576 c 0
 516 576 540 565 540 550 c 0
 540 530 528 520 501 519 c 0xa6c0
 487 518 480 508 472 476 c 0
 467 458 464 441 464 434 c 0
 464 432 465 430 465 430 c 0
 465 430 466 428 466 425 c 0
 466 403 452 311 431 199 c 0
 427 177 424 134 424 105 c 0
 424 76 418 38 412 22 c 0
 404 2 399 -6 383 -6 c 0
 376 -6 368 -5 356 -2 c 0
 346 0 334 6 330 10 c 0
 326 14 321 74 320 144 c 0
 319 214 315 274 312 277 c 0
 309 280 306 293 306 305 c 0
 306 333 327 327 333 297 c 0
 339 268 370 208 379 208 c 0
 383 208 389 223 392 242 c 0
 400 292 403 309 414 348 c 0
 420 368 425 400 427 421 c 0
 429 442 433 466 436 475 c 0
 437 479 438 483 438 487 c 0xc6c0
 438 500 429 511 412 517 c 0
 403 520 396 528 396 536 c 0
 396 544 403 553 412 556 c 0
 421 559 436 564 446 568 c 0
 458 573 472 576 485 576 c 0xa6c0
35 558 m 0x9640
 45 558 57 556 68 550 c 0
 76 546 82 544 88 544 c 0
 94 544 99 546 106 549 c 0
 113 553 121 554 129 554 c 0
 142 554 153 549 153 541 c 0x8e40
 153 537 144 530 134 527 c 0
 116 521 104 498 104 478 c 0
 104 471 105 465 108 459 c 0
 113 450 122 397 127 341 c 0
 135 261 142 236 156 220 c 0
 165 211 169 205 169 199 c 0
 169 195 167 191 163 186 c 0
 157 179 155 169 158 163 c 0
 159 162 159 162 160 162 c 0
 171 162 207 234 207 260 c 0
 207 271 211 280 216 280 c 0
 221 280 223 263 223 238 c 0
 223 175 209 60 193 21 c 0
 185 2 172 -9 159 -9 c 0
 151 -9 143 -5 137 3 c 0
 126 16 120 33 120 51 c 0
 120 64 124 78 130 90 c 0
 136 102 140 115 140 123 c 0
 140 126 139 128 138 130 c 0
 127 147 99 296 95 356 c 0
 88 487 77 522 38 522 c 0
 35 522 31 521 27 521 c 0
 10 519 4 522 4 536 c 0
 4 550 18 558 35 558 c 0x9640
321 548 m 0xc740
 339 548 351 546 351 544 c 0
 351 538 298 487 292 487 c 0xc740
 290 487 288 495 288 505 c 0
 288 517 282 523 270 523 c 0x8f40
 260 523 252 528 252 535 c 0
 252 543 268 547 302 548 c 0
 309 548 315 548 321 548 c 0xc740
216 541 m 0x8e40
 221 541 225 537 225 532 c 0
 225 527 221 523 216 523 c 0
 211 523 207 527 207 532 c 0
 207 537 211 541 216 541 c 0x8e40
307 458 m 0
 316 457 324 433 324 395 c 0
 324 363 319 347 310 347 c 0
 307 347 303 349 298 354 c 0
 291 361 288 380 288 401 c 0x8740
 288 421 291 442 297 451 c 0
 300 456 304 458 307 458 c 0
255 421 m 0
 256 421 257 420 258 417 c 0
 261 411 260 403 257 400 c 0
 254 397 253 402 253 411 c 0
 253 418 254 421 255 421 c 0
EndSplineSet
Validated: 1
EndChar

StartChar: X
Encoding: 88 88 32
Width: 540
VWidth: 0
Flags: W
HStem: 25 31<228.31 292.514> 449 20G<229.5 234.5> 537 61<31.7305 180.392> 545 44<329.576 367.996 378.688 528.709> 554 21<518.672 539.53>
VStem: 225 27<413.096 464.831> 270 55<306.033 371.903> 368 46<487.092 530.054>
LayerCount: 2
Fore
SplineSet
50 18 m 0xd7
 18 22 1 31 1 44 c 0
 1 55 15 69 41 82 c 0
 70 96 86 112 97 135 c 0
 105 153 122 171 133 176 c 0
 144 181 152 189 150 194 c 0
 150 195 150 196 150 197 c 0
 150 204 155 221 164 238 c 0
 174 258 180 266 186 266 c 0
 189 266 191 264 194 262 c 0
 199 258 204 256 209 256 c 0
 218 256 225 263 225 276 c 0
 225 283 228 289 233 289 c 0
 242 289 270 340 270 357 c 0
 270 363 265 370 260 372 c 0
 250 375 225 436 225 458 c 0
 225 465 228 469 231 469 c 0
 238 469 249 455 252 437 c 0
 256 417 262 410 280 408 c 0
 281 408 283 408 284 408 c 0
 307 408 333 433 333 458 c 0
 333 465 341 481 351 494 c 0
 363 509 368 521 368 529 c 0
 368 537 363 541 352 541 c 0
 336 541 327 548 327 558 c 0
 327 563 329 568 334 573 c 0
 345 583 389 589 430 589 c 0xd7
 451 589 471 588 485 584 c 0
 503 579 523 576 529 575 c 0
 535 574 540 568 540 561 c 0
 540 554 536 551 531 554 c 0xcf
 526 557 522 555 522 549 c 0
 522 544 518 542 509 542 c 0
 504 542 498 543 491 544 c 0
 485 545 480 545 475 545 c 0
 460 545 450 541 437 531 c 0
 424 521 414 508 414 503 c 0
 414 498 394 459 369 418 c 0
 339 368 325 340 325 322 c 0
 325 312 330 305 338 298 c 0
 345 292 351 281 351 274 c 0
 351 253 423 123 444 107 c 0
 455 99 475 89 488 86 c 0
 501 83 518 71 525 60 c 0
 529 54 532 49 532 46 c 0
 532 39 520 36 481 29 c 0
 456 24 423 21 386 21 c 0
 367 21 347 22 326 23 c 0
 305 24 280 25 255 25 c 0
 217 25 178 23 153 21 c 0
 125 18 95 17 74 17 c 0
 63 17 55 17 50 18 c 0xd7
295 73 m 0
 311 83 323 94 323 98 c 0
 321 119 273 195 260 197 c 0
 259 197 259 197 258 197 c 0
 248 197 236 182 220 148 c 2
 196 96 l 1
 222 76 l 2
 238 63 247 56 257 56 c 0
 266 56 277 62 295 73 c 0
173 520 m 0
 161 529 129 536 97 537 c 0xe7
 47 539 29 546 29 563 c 0
 29 567 29 570 31 575 c 0xcf
 35 587 47 595 68 597 c 0
 74 598 82 598 91 598 c 0xe7
 146 598 246 587 255 578 c 0
 258 575 260 571 260 568 c 0
 260 559 249 550 234 550 c 0
 224 550 216 542 214 530 c 0
 212 516 207 509 199 509 c 0
 193 509 184 512 173 520 c 0
EndSplineSet
Validated: 1
EndChar

StartChar: Y
Encoding: 89 89 33
Width: 540
VWidth: 0
Flags: W
HStem: -14 61<125.65 237.812 316.687 427.088> 514 57<9.31421 84.0964 452.246 536> 514 34<0.182629 67.781>
VStem: 241 67<53.5942 254.955> 359 91<447.913 505.96>
LayerCount: 2
Fore
SplineSet
196 -8 m 0xd8
 144 -4 117 7 117 19 c 0
 117 28 135 38 172 43 c 0
 226 50 241 59 241 86 c 0
 241 87 241 88 241 89 c 0
 241 92 241 96 241 100 c 0
 241 119 242 151 243 182 c 0
 244 194 244 205 244 214 c 0
 244 258 238 271 222 271 c 0
 213 271 205 291 183 372 c 0
 181 381 174 388 167 388 c 0
 160 388 146 401 136 417 c 0
 75 511 73 514 29 514 c 0xd8
 10 514 0 519 0 529 c 0
 0 534 3 540 8 548 c 0xb8
 12 554 46 563 86 567 c 0
 110 570 127 571 141 571 c 0
 159 571 171 568 183 562 c 0
 197 555 203 551 203 546 c 0
 203 542 200 538 193 531 c 0
 185 522 181 518 181 509 c 0
 181 501 185 488 193 466 c 0
 230 358 244 336 265 336 c 0
 266 336 267 336 269 336 c 0
 288 338 298 351 325 406 c 0
 348 451 359 478 359 495 c 0
 359 508 352 514 338 518 c 0
 326 521 315 528 315 535 c 0
 315 556 357 567 447 569 c 2
 536 571 l 1
 538 538 l 2
 539 530 539 523 539 519 c 0
 539 511 537 509 531 509 c 0
 527 509 522 510 515 511 c 0
 511 512 507 512 502 512 c 0
 477 512 450 499 450 485 c 0
 450 479 438 461 425 443 c 0
 394 403 376 367 337 273 c 0
 315 221 308 202 308 169 c 0
 308 158 309 145 310 130 c 0
 315 58 318 47 338 47 c 0
 340 47 343 47 345 47 c 0
 348 47 351 47 354 47 c 0
 386 47 425 34 430 21 c 0
 431 18 432 16 432 14 c 0
 432 -5 398 -14 327 -14 c 0
 292 -14 249 -12 196 -8 c 0xd8
EndSplineSet
Validated: 1
EndChar

StartChar: Z
Encoding: 90 90 34
Width: 540
VWidth: 0
Flags: W
HStem: 31 78<175.29 400.353> 568 50<313.143 350.257> 573 35<174.182 277.744>
VStem: 32 59<485.824 524.024> 108 87<203.222 261.87> 351 70<533.33 568.585> 405 99<113.57 220.734>
LayerCount: 2
Fore
SplineSet
80 27 m 0xdc
 38 40 18 56 18 73 c 0
 18 82 13 91 7 94 c 0
 0 97 -2 101 4 106 c 0
 23 122 108 225 108 233 c 0
 108 237 118 251 131 263 c 0
 170 299 295 458 302 480 c 0
 306 492 318 509 330 520 c 0
 344 533 351 546 351 555 c 0
 351 563 345 568 334 568 c 0
 319 568 308 585 308 600 c 0
 308 605 309 610 313 614 c 0
 316 617 322 618 329 618 c 0
 359 618 419 599 421 585 c 0
 421 584 421 583 421 582 c 0xdc
 421 572 413 552 401 535 c 0
 377 499 368 488 304 410 c 0
 284 385 258 345 247 320 c 0
 236 295 220 270 212 263 c 0
 204 256 198 244 198 236 c 0
 198 228 194 216 188 210 c 0
 180 202 180 196 188 186 c 0
 193 181 195 175 195 170 c 0
 195 161 187 154 175 154 c 0
 166 154 162 151 162 147 c 0
 162 141 170 133 184 124 c 0
 201 113 229 109 300 109 c 0
 305 109 310 109 314 109 c 0
 403 109 405 110 405 181 c 0
 405 184 405 187 405 190 c 0
 405 226 409 247 419 257 c 0
 427 265 434 270 440 270 c 0
 448 270 456 261 471 242 c 0
 491 215 502 157 504 69 c 0
 504 68 504 68 504 67 c 0xda
 504 37 483 31 351 31 c 0
 340 31 329 31 317 31 c 0
 229 31 145 29 130 26 c 0
 123 25 114 24 106 24 c 0
 96 24 87 25 80 27 c 0xdc
38 431 m 0
 34 440 32 478 32 517 c 0
 32 580 34 590 53 605 c 0
 66 616 77 619 107 619 c 0
 119 619 133 619 152 618 c 0xd8
 195 616 240 611 254 608 c 0
 270 604 278 598 278 592 c 0
 278 584 264 577 236 573 c 0xb8
 212 570 179 559 162 550 c 0
 145 541 121 529 110 524 c 0
 97 518 91 512 91 506 c 0
 91 500 97 493 109 487 c 0
 124 479 130 480 139 493 c 0
 149 507 151 503 150 467 c 0
 149 432 146 418 135 418 c 0
 130 418 123 422 113 428 c 0
 93 441 89 441 84 429 c 0
 81 420 72 416 63 416 c 0
 53 416 42 421 38 431 c 0
EndSplineSet
Validated: 1
EndChar

StartChar: underscore
Encoding: 95 95 39
Width: 540
VWidth: 0
Flags: W
HStem: -194 102<1.09253 217.087> -190 101<16.437 436.533 438.377 523.509>
LayerCount: 2
Fore
SplineSet
437 -79 m 0x40
 466 -79 519 -87 529 -94 c 0
 535 -99 540 -117 540 -134 c 0
 540 -179 519 -184 297 -186 c 0
 191 -187 101 -189 99 -190 c 0x40
 97 -192 73 -193 47 -194 c 2
 0 -196 l 1
 0 -144 l 2
 0 -101 3 -92 16 -92 c 0x80
 24 -92 117 -90 222 -89 c 0
 327 -88 415 -85 418 -82 c 0
 420 -80 427 -79 437 -79 c 0x40
EndSplineSet
Validated: 1
EndChar

StartChar: e
Encoding: 101 101 41
Width: 540
VWidth: 0
Flags: W
HStem: 17 80<158.171 306.196> 227 71<122.443 338.638> 403 64<158.602 303.082>
VStem: 34 76<307.279 356.125> 34 65<161.337 218.733> 342 89<271 363.622>
LayerCount: 2
Fore
SplineSet
167 25 m 0xec
 129 36 92 76 62 136 c 0
 41 178 35 201 34 253 c 0
 34 256 34 258 34 261 c 0
 34 333 47 360 108 415 c 0
 147 450 189 467 231 467 c 0
 284 467 337 440 389 387 c 0
 416 359 425 344 429 307 c 0
 430 296 431 287 431 280 c 0
 431 262 427 254 416 243 c 0
 403 230 393 226 336 226 c 0
 322 226 304 227 283 227 c 0
 273 227 263 227 253 227 c 0
 168 227 99 220 99 210 c 0
 99 191 132 138 156 120 c 0
 180 102 196 97 236 97 c 0
 269 97 290 101 297 110 c 0
 303 117 312 124 317 124 c 0
 322 124 341 137 361 153 c 0
 381 169 391 176 397 176 c 0
 402 176 405 172 410 165 c 0
 418 155 421 143 421 131 c 0
 421 89 381 41 324 25 c 0
 306 19 275 17 245 17 c 0
 215 17 185 19 167 25 c 0xec
334 311 m 0
 340 317 342 324 342 331 c 0
 342 348 328 367 302 382 c 0
 278 396 252 403 228 403 c 0
 188 403 151 384 125 348 c 0
 115 333 110 326 110 321 c 0xf4
 110 316 114 313 122 307 c 0
 131 300 169 298 211 298 c 0
 265 298 326 303 334 311 c 0
EndSplineSet
Validated: 1
EndChar

StartChar: f
Encoding: 102 102 42
Width: 540
VWidth: 0
Flags: W
HStem: 45 77<94.9806 406.999> 430 64<88.2334 190.125 281.713 371.605> 458 21G<456.5 473> 583 54<302.107 419.711>
VStem: 202 76<129.168 385.483 517.234 557.161> 202 65<155.766 416.923> 396 116<489.266 548.274>
LayerCount: 2
Fore
SplineSet
86 55 m 0xda
 76 63 72 73 75 82 c 0
 80 97 132 122 153 122 c 0
 155 122 157 122 158 121 c 0
 161 120 164 119 167 119 c 0
 183 119 189 145 193 219 c 0
 196 268 199 323 201 340 c 0
 202 344 202 350 202 355 c 0
 202 370 200 386 196 396 c 0
 189 416 181 421 144 426 c 0
 104 431 84 441 84 458 c 0
 84 463 86 468 89 474 c 0
 97 488 110 493 150 495 c 0
 197 497 202 500 208 522 c 0
 221 569 261 609 309 623 c 0
 334 630 366 637 379 637 c 0
 413 637 460 616 485 589 c 0
 502 571 512 534 512 505 c 0
 512 491 510 478 504 471 c 0
 497 462 482 458 464 458 c 0xba
 449 458 433 461 417 467 c 0
 409 470 404 471 399 471 c 0
 390 471 383 466 373 453 c 0
 358 435 347 430 317 430 c 0
 281 430 267 421 267 386 c 0xd6
 267 375 269 362 271 346 c 0
 275 320 278 262 278 217 c 0
 278 172 283 132 288 129 c 0
 293 126 318 121 343 119 c 0
 390 115 414 104 414 84 c 0
 414 78 411 70 406 62 c 0
 399 51 296 45 208 45 c 0
 148 45 96 48 86 55 c 0xda
396 508 m 0
 396 521 403 537 412 544 c 0
 427 556 427 557 410 570 c 0
 399 579 383 583 367 583 c 0
 331 583 290 563 283 534 c 0
 281 527 281 522 281 517 c 0
 281 501 290 494 309 494 c 0xd2
 314 494 318 494 324 495 c 0
 330 496 337 496 343 496 c 0
 355 496 365 495 370 492 c 0
 390 479 396 483 396 508 c 0
EndSplineSet
Validated: 1
EndChar

StartChar: g
Encoding: 103 103 43
Width: 540
VWidth: 0
Flags: W
HStem: -109 59<159.004 395.717> 114 41<153.046 376.147> 197 54<200.314 318.493> 358 118<409.588 477.416> 448 35<199.944 307.934>
VStem: 36 64<-1.23553 78.1268> 45 64<163.275 221.683> 108 46<301.501 406.875> 359 46<293.538 354.545>
LayerCount: 2
Fore
SplineSet
200 -100 m 0xf280
 147 -90 84 -57 58 -26 c 0
 44 -9 36 13 36 35 c 0xf480
 36 53 41 70 51 85 c 0
 58 96 62 103 62 112 c 0
 62 119 60 127 56 137 c 0
 50 153 45 172 45 181 c 0xf280
 45 201 76 261 94 276 c 0
 103 283 108 302 108 325 c 0
 108 387 133 437 174 458 c 0
 205 474 245 483 277 483 c 0xe980
 297 483 315 479 325 472 c 0
 338 463 356 457 370 457 c 0
 380 457 389 460 392 466 c 0
 396 473 405 476 416 476 c 0
 448 476 500 449 507 420 c 0
 508 418 508 415 508 413 c 0
 508 388 473 358 442 358 c 0
 415 358 405 342 405 299 c 0
 405 280 365 238 321 210 c 0
 307 201 295 197 274 197 c 0
 264 197 251 198 235 200 c 0
 202 203 169 213 160 221 c 0
 154 227 149 230 145 230 c 0
 140 230 135 226 126 218 c 0
 114 208 109 194 109 183 c 0
 109 175 112 168 118 164 c 0
 123 161 182 157 250 155 c 0
 436 151 481 135 505 63 c 0
 508 53 510 43 510 32 c 0
 510 -3 494 -40 470 -60 c 0
 430 -92 364 -109 292 -109 c 0
 262 -109 231 -106 200 -100 c 0xf280
376 -35 m 0
 402 -28 423 -16 435 0 c 2
 454 25 l 1
 435 50 l 2
 404 92 345 114 274 114 c 0
 253 114 230 112 207 108 c 0
 136 95 100 73 100 43 c 0
 100 33 104 21 113 9 c 0
 140 -29 195 -50 265 -50 c 0
 299 -50 337 -45 376 -35 c 0
318 271 m 0
 345 297 359 326 359 353 c 0
 359 386 340 416 303 433 c 0
 282 443 264 448 247 448 c 0
 224 448 204 438 183 416 c 0
 164 395 154 375 154 355 c 0xe980
 154 331 168 306 197 276 c 0
 213 259 237 251 261 251 c 0
 282 251 303 257 318 271 c 0
EndSplineSet
Validated: 1
EndChar

StartChar: h
Encoding: 104 104 44
Width: 540
VWidth: 0
Flags: W
HStem: 41 74<27.1319 85.375> 466 20G<288.5 325.5> 574 66<26.4979 84.1176>
VStem: 94 62<120.072 359.346> 105 51<161.58 359.346 500.469 554.072> 105 42<452.015 550.718> 359 62<141 411.531>
LayerCount: 2
Fore
SplineSet
84 41 m 0xf2
 39 43 21 49 21 68 c 0
 21 75 23 83 27 93 c 0
 33 109 43 115 58 115 c 0
 87 115 90 127 94 251 c 0xf2
 96 307 99 365 103 379 c 0
 104 384 105 392 105 402 c 0
 105 451 91 549 79 563 c 0
 74 569 60 574 49 574 c 0
 32 574 21 584 21 599 c 0
 21 605 23 612 27 619 c 0
 34 632 57 640 81 640 c 0
 92 640 104 638 114 634 c 0
 135 625 152 588 152 551 c 0
 152 545 151 538 150 532 c 0
 148 521 147 510 147 500 c 0xe6
 147 472 155 452 166 452 c 0
 167 452 168 452 170 453 c 0
 208 470 274 486 303 486 c 0
 304 486 304 486 305 486 c 0
 346 485 391 460 405 431 c 0
 411 418 418 349 421 274 c 2
 426 141 l 1
 460 104 l 2
 483 79 494 63 494 53 c 0
 494 47 490 43 482 40 c 0
 478 38 465 38 448 38 c 0
 392 38 289 45 278 52 c 0
 273 55 270 59 270 64 c 0
 270 77 288 93 317 106 c 2
 356 123 l 1
 358 257 l 2
 358 284 359 306 359 324 c 0
 359 390 355 395 338 411 c 2
 316 432 l 1
 258 413 l 2
 210 397 196 387 177 358 c 0
 161 334 156 322 156 291 c 0
 156 282 156 270 157 257 c 0
 159 221 162 177 162 159 c 0
 162 129 165 124 202 107 c 0
 229 94 243 81 243 70 c 0
 243 64 239 59 232 55 c 0
 218 47 167 40 114 40 c 0
 104 40 94 41 84 41 c 0xf2
EndSplineSet
Validated: 1
EndChar

StartChar: i
Encoding: 105 105 45
Width: 540
VWidth: 0
Flags: W
HStem: 6 84<73.3754 200.875 310.154 415.129> 380 89<79.8721 216.619> 488 114<196.503 284.625>
VStem: 181 121<505.364 583.768> 215 80<102.29 378>
LayerCount: 2
Fore
SplineSet
89 12 m 4xe8
 71 21 63 33 63 45 c 4
 63 68 91 90 135 90 c 4
 208 90 211 96 215 247 c 6
 218 378 l 5
 183 380 l 6
 164 381 136 381 121 382 c 4
 85 383 72 393 72 417 c 4
 72 453 91 467 140 469 c 4
 145 469 150 469 155 469 c 4
 214 469 258 458 276 439 c 4
 289 425 294 405 295 348 c 4
 298 221 304 109 310 99 c 4
 313 94 335 90 359 90 c 4
 389 90 407 86 417 74 c 4
 426 64 431 53 431 43 c 4
 431 33 426 25 416 20 c 4
 399 12 280 6 190 6 c 4
 139 6 98 8 89 12 c 4xe8
216 499 m 4
 192 508 181 522 181 543 c 4
 181 553 184 566 189 580 c 4
 195 597 199 602 213 602 c 4
 218 602 226 601 235 600 c 4
 278 594 302 573 302 546 c 4xf0
 302 535 298 522 288 510 c 4
 276 495 269 488 257 488 c 4
 248 488 235 492 216 499 c 4
EndSplineSet
Validated: 1
EndChar

StartChar: j
Encoding: 106 106 46
Width: 540
VWidth: 0
Flags: W
HStem: -110 58<159.83 266.165> 438 41<189.539 278.922> 538 100<288.711 372.299>
VStem: 65 127<-10.397 67.6635> 280 98<542.805 629.509> 302 56<6.84735 403.858> 312 51<216.89 428.744>
LayerCount: 2
Fore
SplineSet
130 -97 m 0xf4
 87 -78 65 -34 65 7 c 0
 65 50 89 88 135 88 c 0
 151 88 167 80 179 65 c 0
 187 54 192 46 192 36 c 0
 192 23 184 9 169 -13 c 0
 160 -26 156 -39 160 -41 c 0
 172 -48 199 -52 221 -52 c 0
 234 -52 244 -51 250 -48 c 0
 280 -32 295 45 302 210 c 0xf4
 305 294 310 376 311 392 c 0
 311 396 312 401 312 404 c 0xf2
 312 427 300 431 241 438 c 0
 208 442 189 452 189 461 c 0
 189 468 198 474 218 479 c 0
 234 483 257 484 280 484 c 0xf8
 314 484 348 481 355 474 c 0
 361 468 363 461 363 415 c 0xf2
 363 378 362 317 358 212 c 0
 351 7 342 -35 300 -80 c 0
 274 -108 269 -110 215 -110 c 0
 183 -110 145 -104 130 -97 c 0xf4
286 561 m 0
 282 570 280 579 280 587 c 0
 280 611 295 631 319 638 c 0
 325 639 330 640 335 640 c 0
 361 640 378 621 378 588 c 0xf8
 378 552 364 538 327 538 c 0
 304 538 294 543 286 561 c 0
EndSplineSet
Validated: 1
EndChar

StartChar: k
Encoding: 107 107 47
Width: 540
VWidth: 0
Flags: W
HStem: 39 68<399.676 498.551> 263 78<173.011 228.137> 465 20G<339.5 370.5> 580 60<30.4263 92.227>
VStem: 98 54<131.202 242.686 347.219 576.46>
LayerCount: 2
Fore
SplineSet
338 39 m 0
 328 41 310 46 299 48 c 0
 286 50 280 55 280 63 c 0
 280 71 286 81 299 95 c 0
 309 106 314 111 314 118 c 0
 314 124 310 131 302 145 c 0
 293 161 277 189 267 208 c 0
 248 245 226 263 206 263 c 0
 188 263 172 248 162 218 c 0
 157 203 155 189 155 176 c 0
 155 146 168 122 194 107 c 0
 214 95 223 88 223 80 c 0
 223 74 218 67 208 58 c 0
 198 49 186 45 153 45 c 0
 144 45 133 46 121 46 c 0
 82 48 44 51 38 55 c 0
 31 59 27 66 27 72 c 0
 27 82 35 92 49 97 c 0
 61 102 75 113 80 122 c 0
 85 131 92 235 95 351 c 0
 96 408 98 451 98 483 c 0
 98 568 90 581 64 581 c 0
 60 581 55 580 49 580 c 0
 48 580 46 580 45 580 c 0
 29 580 20 587 20 598 c 0
 20 605 23 614 30 623 c 0
 39 635 54 640 84 640 c 0
 145 640 152 635 152 525 c 0
 152 513 152 500 152 486 c 0
 152 478 152 471 152 463 c 0
 152 398 156 351 160 347 c 0
 164 343 169 341 176 341 c 0
 214 341 288 400 288 440 c 0
 288 471 313 485 366 485 c 0
 375 485 385 485 396 484 c 0
 451 480 454 478 454 458 c 0
 454 440 444 430 399 407 c 0
 319 366 270 331 270 313 c 0
 270 300 310 242 386 142 c 0
 397 127 420 115 450 107 c 0
 487 98 505 85 505 73 c 0
 505 57 474 43 418 39 c 0
 400 38 383 38 369 38 c 0
 355 38 343 38 338 39 c 0
EndSplineSet
Validated: 1
EndChar

StartChar: l
Encoding: 108 108 48
Width: 540
VWidth: 0
Flags: W
HStem: 27 82<37.3982 185.66> 38 73<290.421 432.468> 561 63<42.0899 179.794> 606 20G<178.5 199>
VStem: 180 75<309.752 555.834> 195 80<130.386 516.671>
LayerCount: 2
Fore
SplineSet
37 42 m 0x84
 34 48 32 56 32 64 c 0
 32 70 33 76 35 82 c 0
 42 101 50 104 109 109 c 0
 156 113 179 119 187 130 c 0
 193 138 195 161 195 216 c 0x84
 195 247 194 289 193 344 c 0
 190 453 184 546 180 550 c 0
 176 554 146 559 113 561 c 0
 47 565 36 569 36 587 c 0
 36 610 63 620 137 624 c 0xa8
 158 625 173 626 184 626 c 0
 214 626 220 620 241 601 c 0
 261 583 269 573 269 562 c 0
 269 555 266 547 260 537 c 0
 256 531 255 524 255 517 c 0x18
 255 510 256 502 260 494 c 0
 265 481 272 400 275 315 c 0
 278 230 284 150 288 138 c 0
 295 120 304 116 355 111 c 0
 389 107 422 98 433 89 c 0
 452 74 451 73 434 58 c 0
 420 45 394 42 283 38 c 0x54
 209 36 125 32 97 29 c 0
 83 28 73 27 65 27 c 0
 47 27 43 31 37 42 c 0x84
EndSplineSet
Validated: 1
EndChar

StartChar: m
Encoding: 109 109 49
Width: 540
VWidth: 0
Flags: W
HStem: 49 52<141.465 240.366 331.895 412.611> 411 77<351.665 427.738> 439 42<201.273 264.227>
VStem: 60 72<222.536 370.828> 69 63<130.845 363.673> 270 45<138.695 370.285> 445 55<139.5 392.644>
LayerCount: 2
Fore
SplineSet
302 53 m 0xce
 257 56 173 59 116 60 c 0
 59 61 10 63 7 66 c 0
 7 66 7 66 7 67 c 0
 7 73 19 94 37 117 c 0
 57 142 73 166 73 172 c 0
 74 186 74 203 74 220 c 0
 74 274 70 335 65 345 c 0
 62 351 60 357 60 364 c 0xd6
 60 371 62 379 65 387 c 0
 68 395 69 401 69 407 c 0
 69 416 66 424 59 434 c 0
 50 448 46 458 46 466 c 0
 46 477 54 484 73 487 c 0
 79 488 84 489 89 489 c 0
 101 489 110 485 118 478 c 0
 126 471 134 468 144 468 c 0
 149 468 153 469 159 470 c 0
 188 477 216 481 238 481 c 0xae
 258 481 274 478 279 471 c 0
 286 463 295 458 307 458 c 0
 321 458 339 464 362 475 c 0
 381 484 394 488 409 488 c 0
 417 488 424 487 434 485 c 0
 454 481 472 474 475 471 c 0
 484 462 495 365 500 250 c 0
 505 154 516 101 529 101 c 0
 530 101 531 101 532 102 c 0
 536 105 540 95 540 80 c 0
 540 65 537 52 533 51 c 0
 523 49 494 49 457 49 c 0
 406 49 342 50 302 53 c 0xce
249 140 m 0
 262 171 270 234 270 329 c 0
 270 340 270 350 270 362 c 0
 269 425 262 439 233 439 c 0xb6
 218 439 143 367 135 345 c 0
 133 340 132 317 132 285 c 0
 132 268 132 248 133 228 c 2
 136 124 l 1
 178 112 l 2
 197 106 215 102 223 102 c 0
 225 102 226 103 227 103 c 0
 231 105 241 122 249 140 c 0
395 110 m 0
 429 128 436 152 444 306 c 0
 445 319 445 329 445 338 c 0
 445 366 441 375 427 390 c 0
 414 404 404 411 393 411 c 0xc6
 383 411 372 405 357 394 c 0
 328 371 315 332 315 254 c 0
 315 243 316 231 316 219 c 0
 319 139 322 130 341 114 c 0
 354 103 359 98 366 98 c 0
 372 98 380 102 395 110 c 0
EndSplineSet
Validated: 1
EndChar

StartChar: n
Encoding: 110 110 50
Width: 540
VWidth: 0
Flags: W
HStem: 436 70<248.485 358.304>
VStem: 108 72<151 362> 376 71<150.408 422>
LayerCount: 2
Fore
SplineSet
43 57 m 0
 38 62 36 68 36 75 c 0
 36 91 47 111 67 128 c 0
 94 152 99 163 104 210 c 0
 107 240 108 272 108 282 c 0
 106 418 107 416 82 436 c 0
 69 447 63 452 63 459 c 0
 63 464 67 470 73 481 c 0
 84 500 91 505 113 505 c 0
 115 505 117 505 120 505 c 0
 141 504 161 497 174 485 c 0
 186 473 193 468 203 468 c 0
 214 468 228 474 256 488 c 0
 281 500 298 506 320 506 c 0
 337 506 356 503 384 497 c 0
 395 495 413 480 424 465 c 0
 442 440 444 424 447 319 c 0
 452 148 455 125 482 113 c 0
 496 107 502 100 502 93 c 0
 502 82 484 71 450 63 c 0
 430 58 404 56 380 56 c 0
 340 56 302 62 296 72 c 0
 294 76 292 80 292 84 c 0
 292 97 305 109 329 120 c 0
 346 128 361 142 364 150 c 0
 367 158 371 211 374 268 c 0
 375 296 376 317 376 334 c 0
 376 370 373 386 363 406 c 0
 352 428 345 436 335 436 c 0
 333 436 331 436 328 435 c 0
 318 432 300 430 287 430 c 0
 273 430 246 416 222 396 c 2
 180 362 l 1
 180 257 l 1
 180 151 l 1
 221 131 l 2
 247 118 261 105 261 93 c 0
 261 83 250 74 230 68 c 0
 201 60 122 54 76 54 c 0
 58 54 45 55 43 57 c 0
EndSplineSet
Validated: 1
EndChar

StartChar: o
Encoding: 111 111 51
Width: 540
VWidth: 0
Flags: W
HStem: -15 69<181.825 305.351> 367 70<168.78 312.41>
VStem: 39 70<132.475 288.556> 387 63<134.963 284.259>
LayerCount: 2
Fore
SplineSet
207 -13 m 0
 163 -7 119 18 86 57 c 0
 56 93 52 105 44 176 c 0
 41 203 39 227 39 248 c 0
 39 296 48 327 66 351 c 0
 105 403 182 437 251 437 c 0
 268 437 284 435 299 431 c 0
 390 406 450 319 450 214 c 0
 450 143 439 104 403 58 c 0
 367 11 305 -15 239 -15 c 0
 228 -15 218 -14 207 -13 c 0
313 81 m 0
 363 122 387 156 387 200 c 0
 387 228 377 260 358 301 c 0
 342 336 288 367 242 367 c 0
 195 367 142 337 137 308 c 0
 135 298 127 278 119 262 c 0
 112 249 109 240 109 228 c 0
 109 217 112 204 117 181 c 0
 132 115 147 91 183 75 c 0
 214 61 235 54 254 54 c 0
 274 54 291 63 313 81 c 0
EndSplineSet
Validated: 1
EndChar

StartChar: p
Encoding: 112 112 52
Width: 540
VWidth: 0
Flags: W
HStem: -162 21G<152.5 214.5> -6 67<245.15 370.327> 380 59<76 131.632 233.196 346.901> 380 34<237.12 267.175>
VStem: 137 52<129.108 316.498> 423 59<125.829 280.22>
LayerCount: 2
Fore
SplineSet
65 -154 m 0xec
 51 -149 45 -140 45 -131 c 0
 45 -117 59 -102 85 -94 c 0
 105 -88 122 -81 124 -79 c 0
 131 -72 136 30 137 190 c 0
 137 221 137 247 137 268 c 0
 137 353 135 364 122 373 c 0
 113 380 97 385 88 385 c 0
 77 385 73 388 73 401 c 0
 73 404 74 409 74 414 c 2
 76 443 l 1
 130 441 l 2
 165 439 188 432 195 423 c 0
 200 417 204 414 210 414 c 0xdc
 217 414 227 417 245 424 c 0
 266 432 303 439 327 439 c 0
 386 439 439 397 464 329 c 0
 476 296 482 253 482 212 c 0
 482 168 475 126 461 100 c 0
 429 39 378 1 320 -5 c 0
 312 -6 305 -6 297 -6 c 0
 276 -6 255 -3 244 1 c 0
 234 5 227 7 221 7 c 0
 207 7 204 -6 203 -40 c 0
 203 -44 203 -48 203 -51 c 0
 203 -77 208 -79 247 -94 c 0
 284 -107 300 -118 300 -129 c 0
 300 -135 296 -140 288 -147 c 0
 274 -159 251 -162 178 -162 c 0
 127 -162 76 -158 65 -154 c 0xec
376 87 m 0
 400 111 423 171 423 211 c 0
 423 244 379 335 354 354 c 0
 332 371 305 380 281 380 c 0xec
 265 380 252 376 242 368 c 0
 216 347 189 268 189 217 c 0
 189 216 189 215 189 214 c 0
 191 145 229 78 274 67 c 0
 290 63 303 61 315 61 c 0
 340 61 359 70 376 87 c 0
EndSplineSet
Validated: 1
EndChar

StartChar: q
Encoding: 113 113 53
Width: 540
VWidth: 0
Flags: W
HStem: -144 61<278.844 377.732> -135 46<445.249 515.375> 23 48<212.26 320.993> 409 38<216.193 326.924>
VStem: 99 51<141.719 337.339> 393 39<156.823 336.324>
LayerCount: 2
Fore
SplineSet
284 447 m 0xbc
 286 447 288 447 290 447 c 0
 312 447 325 442 345 430 c 0
 362 420 371 415 378 415 c 0
 384 415 388 419 395 425 c 0
 402 431 407 435 412 435 c 0
 430 435 432 377 432 177 c 0
 432 153 432 130 432 110 c 0
 432 -83 434 -78 487 -89 c 0
 505 -93 518 -108 518 -122 c 0
 518 -126 517 -131 514 -135 c 0x7c
 510 -142 467 -144 419 -144 c 0
 357 -144 285 -139 278 -131 c 0
 275 -127 273 -123 273 -119 c 0
 273 -101 301 -83 335 -83 c 0
 372 -83 384 -68 384 -19 c 0
 384 -13 384 -7 384 -1 c 0
 383 28 380 36 370 36 c 0
 368 36 366 35 364 35 c 0
 354 33 328 29 306 26 c 0
 293 24 281 23 269 23 c 0
 162 23 99 102 99 240 c 0
 99 299 103 317 124 358 c 0
 156 422 180 438 252 445 c 0
 265 446 275 447 284 447 c 0xbc
274 409 m 0
 259 409 244 406 227 397 c 0
 176 371 150 304 150 238 c 0
 150 178 171 119 215 90 c 0
 234 77 249 71 264 71 c 0
 276 71 289 75 304 83 c 0
 353 108 376 143 387 206 c 0
 391 228 393 245 393 258 c 0
 393 270 391 279 388 285 c 0
 383 295 378 313 378 325 c 0
 378 352 328 399 289 408 c 0
 284 409 279 409 274 409 c 0
EndSplineSet
Validated: 1
EndChar

StartChar: r
Encoding: 114 114 54
Width: 540
VWidth: 0
Flags: W
HStem: 9 79<37.9101 138.75> 11 70<231.229 342.48> 384 78<33.8169 141.988 277.678 371>
VStem: 148 75<90.1903 334.417> 351 122<305.741 383.602>
LayerCount: 2
Fore
SplineSet
33 18 m 0xb8
 24 24 21 32 21 39 c 0
 21 63 61 88 111 88 c 0xb8
 141 88 143 96 147 236 c 0
 148 263 148 285 148 303 c 0
 148 381 138 385 84 387 c 2
 32 390 l 1
 32 420 l 2
 32 447 35 451 65 461 c 0
 77 465 92 467 108 467 c 0
 150 467 199 454 208 437 c 0
 213 427 219 422 228 422 c 0
 238 422 252 428 272 439 c 0
 301 454 331 462 360 462 c 0
 382 462 404 457 422 448 c 0
 451 433 458 424 467 389 c 0
 471 374 473 364 473 355 c 0
 473 343 469 333 461 319 c 0
 448 296 429 286 410 286 c 0
 380 286 351 313 351 357 c 0
 351 377 350 384 341 384 c 0
 337 384 333 383 326 381 c 0
 286 371 259 355 241 330 c 0
 227 310 223 291 223 206 c 0
 223 103 229 81 262 81 c 0
 264 81 266 81 269 81 c 0
 277 81 284 82 290 82 c 0
 330 82 349 73 349 54 c 0
 349 50 348 45 346 39 c 0
 338 19 324 17 182 11 c 0x78
 145 10 117 9 96 9 c 0
 57 9 41 12 33 18 c 0xb8
EndSplineSet
Validated: 1
EndChar

StartChar: s
Encoding: 115 115 55
Width: 540
VWidth: 0
Flags: W
HStem: 47 77<189.721 341.175> 54 186<67.2015 128.752> 331 140<361.344 417.518> 424 62<173.208 314.163>
VStem: 79 83<345.8 409.838> 366 92<147.926 225.295>
LayerCount: 2
Fore
SplineSet
194 53 m 0x9c
 182 56 165 58 151 58 c 0
 142 58 134 57 128 56 c 0
 122 55 117 54 112 54 c 0
 99 54 87 58 76 65 c 0
 56 78 54 86 54 141 c 0
 54 188 58 208 71 224 c 0
 80 235 85 240 92 240 c 0x4c
 96 240 101 238 109 234 c 0
 121 228 141 207 153 189 c 0
 190 134 205 127 281 124 c 0
 282 124 283 124 284 124 c 0
 328 124 366 158 366 192 c 0
 366 198 365 203 363 209 c 0
 356 227 297 249 238 254 c 0
 157 261 100 284 88 312 c 0
 82 328 79 344 79 360 c 0
 79 404 102 446 145 467 c 0
 168 479 210 486 251 486 c 0x9c
 280 486 308 483 329 476 c 0
 339 473 354 471 366 471 c 0
 372 471 376 471 380 472 c 0
 384 473 388 473 391 473 c 0
 412 473 420 456 425 408 c 0
 426 399 426 391 426 384 c 0
 426 350 416 331 399 331 c 0x2c
 386 331 369 342 350 366 c 0
 319 405 311 410 253 421 c 0
 243 423 235 424 227 424 c 0
 212 424 201 420 188 413 c 0
 171 403 162 392 162 380 c 0
 162 367 172 354 191 340 c 0
 215 322 233 318 284 317 c 0
 357 315 381 307 420 269 c 0
 446 244 458 215 458 186 c 0
 458 138 424 90 362 64 c 0
 336 53 293 47 253 47 c 0
 231 47 210 49 194 53 c 0x9c
EndSplineSet
Validated: 1
EndChar

StartChar: t
Encoding: 116 116 56
Width: 540
VWidth: 0
Flags: W
HStem: 9 108<277.363 341.772> 394 82<74.4387 177.843 266.797 423.661>
VStem: 188 73<128.789 376.493> 193 57<488.153 612.05> 342 103<118.886 202.534>
LayerCount: 2
Fore
SplineSet
244 31 m 0xe8
 198 68 188 97 188 219 c 0
 188 225 188 232 188 238 c 0xe8
 188 305 185 367 180 377 c 0
 173 389 161 394 136 394 c 0
 115 394 92 401 80 411 c 0
 69 420 64 426 64 433 c 0
 64 437 66 443 69 450 c 0
 77 468 87 473 125 477 c 0
 150 479 175 485 178 488 c 0
 181 491 184 511 185 532 c 0
 186 553 189 579 193 590 c 0
 198 605 222 619 238 619 c 0
 243 619 247 618 250 615 c 0xd8
 253 612 257 581 259 547 c 0
 263 477 261 479 360 476 c 0
 409 474 431 464 431 440 c 0
 431 436 430 432 429 427 c 0
 423 404 399 394 347 394 c 0
 338 394 328 394 317 395 c 2
 266 398 l 1
 262 318 l 2
 262 305 261 291 261 279 c 0
 261 202 269 147 283 128 c 0
 289 120 300 117 310 117 c 0
 326 117 342 125 342 139 c 0
 342 170 363 213 384 222 c 0
 396 227 405 230 412 230 c 0
 426 230 432 218 439 185 c 0
 443 168 445 153 445 139 c 0
 445 102 431 72 401 43 c 0
 375 18 361 13 322 10 c 0
 314 9 306 9 300 9 c 0
 276 9 265 14 244 31 c 0xe8
EndSplineSet
Validated: 1
EndChar

StartChar: u
Encoding: 117 117 57
Width: 540
VWidth: 0
Flags: W
HStem: -1 63<459.493 509.729> 8 73<201.161 315.459> 385 63<306.031 371.25> 442 20G<123.5 132.5>
VStem: 100 76<106.644 384.017> 383 67<165.471 377.936>
LayerCount: 2
Fore
SplineSet
432 6 m 0xac
 415 9 391 18 380 24 c 0
 373 28 367 30 359 30 c 0
 349 30 337 27 319 21 c 0
 293 12 267 8 243 8 c 0
 199 8 161 23 134 52 c 0
 108 80 98 117 98 179 c 0
 98 185 98 190 98 196 c 0
 99 236 100 297 100 335 c 0
 100 349 100 360 100 365 c 0
 100 371 89 380 76 385 c 0x6c
 57 392 48 404 48 416 c 0
 48 435 70 454 108 460 c 0
 115 461 121 462 126 462 c 0
 139 462 146 457 156 442 c 0
 170 422 174 399 176 282 c 0
 179 117 187 92 243 83 c 0
 251 82 258 81 264 81 c 0x5c
 298 81 320 100 354 153 c 0
 377 189 383 199 383 238 c 0
 383 249 383 263 382 280 c 0
 379 365 371 385 338 385 c 0
 327 385 312 392 305 400 c 0
 301 404 300 409 300 413 c 0
 300 432 334 448 380 448 c 0
 447 448 450 444 450 264 c 0
 450 180 453 102 456 91 c 0
 459 80 472 67 487 62 c 0
 505 56 514 44 514 33 c 0
 514 23 506 13 490 7 c 0
 477 2 466 -2 465 -1 c 0
 464 0 449 3 432 6 c 0xac
EndSplineSet
Validated: 1
EndChar

StartChar: v
Encoding: 118 118 58
Width: 540
VWidth: 0
Flags: W
HStem: 430 72<27.9062 103.772 297.302 339.996>
LayerCount: 2
Fore
SplineSet
244 60 m 0
 230 68 201 139 185 200 c 0
 178 229 168 256 164 262 c 0
 160 268 149 299 140 331 c 0
 121 396 96 430 67 430 c 0
 56 430 40 438 29 447 c 2
 9 463 l 1
 31 483 l 2
 47 498 59 502 98 502 c 0
 103 502 108 502 114 502 c 0
 228 500 230 500 230 473 c 0
 230 472 230 471 230 470 c 0
 230 450 224 441 209 434 c 0
 199 430 193 427 193 415 c 0
 193 400 202 372 222 306 c 0
 235 265 251 229 258 226 c 0
 260 225 261 225 263 225 c 0
 278 225 296 248 302 277 c 0
 305 289 313 314 320 331 c 0
 327 348 334 377 337 396 c 0
 339 406 340 413 340 418 c 0
 340 428 335 430 324 430 c 0
 307 430 292 454 292 473 c 0
 292 479 294 484 297 488 c 0
 303 495 337 499 387 500 c 0
 397 500 405 500 413 500 c 0
 461 500 470 497 477 484 c 0
 482 474 485 467 485 461 c 0
 485 450 475 443 452 432 c 0
 421 417 416 411 391 336 c 0
 376 291 359 243 353 229 c 0
 347 215 342 197 342 188 c 0
 342 179 330 147 315 117 c 0
 294 76 276 56 258 56 c 0
 253 56 249 57 244 60 c 0
EndSplineSet
Validated: 1
EndChar

StartChar: w
Encoding: 119 119 59
Width: 540
VWidth: 0
Flags: W
HStem: 407 48<339.193 411.626>
VStem: 81 66<287.447 392.009> 229 108<275.171 388.858> 320 122<54.339 234.627>
LayerCount: 2
Fore
SplineSet
412 463 m 0xd0
 436 463 476 457 502 447 c 2
 523 439 l 1
 505 414 l 2
 495 400 485 377 482 362 c 0
 479 347 471 315 464 290 c 0
 457 265 448 206 442 156 c 0
 431 58 415 25 384 25 c 0
 345 25 339 40 320 144 c 0
 307 219 298 246 288 246 c 0
 273 246 269 232 247 128 c 0
 239 88 229 50 225 43 c 0
 220 33 193 26 172 26 c 0
 162 26 153 28 150 32 c 0
 147 36 138 90 130 152 c 0
 122 214 107 280 98 300 c 0
 89 320 81 344 81 354 c 0
 81 377 72 388 42 401 c 0
 28 407 23 411 23 417 c 0
 23 420 24 424 27 429 c 0
 40 452 47 457 90 457 c 0
 95 457 100 457 106 457 c 0
 185 456 244 455 287 455 c 0
 363 455 389 457 395 461 c 0
 398 463 404 463 412 463 c 0xd0
189 415 m 1
 166 394 l 2
 152 381 147 374 147 356 c 0
 147 347 148 335 150 318 c 0
 155 270 175 224 190 223 c 0
 193 223 201 247 209 275 c 0
 222 322 229 347 229 362 c 0xe0
 229 377 223 383 211 394 c 2
 189 415 l 1
366 407 m 0
 354 406 343 401 339 389 c 0
 338 386 337 381 337 375 c 0
 337 341 354 271 368 261 c 0
 372 258 376 256 379 256 c 0
 390 256 398 274 406 313 c 0
 410 330 415 352 418 362 c 0
 419 365 419 367 419 370 c 0
 419 391 392 407 369 407 c 0
 368 407 367 407 366 407 c 0
EndSplineSet
Validated: 1
EndChar

StartChar: x
Encoding: 120 120 60
Width: 540
VWidth: 0
Flags: W
HStem: 56 69<28.2124 174.945> 424 72<26.8689 144.269>
VStem: 204 111<250.063 345.305>
LayerCount: 2
Fore
SplineSet
93 56 m 0
 45 56 18 56 18 92 c 0
 18 105 24 118 36 124 c 0
 46 129 58 131 63 128 c 0
 67 126 71 125 75 125 c 0
 92 125 114 142 132 172 c 0
 145 193 163 214 171 220 c 0
 183 229 204 273 204 297 c 0
 204 308 200 318 190 336 c 0
 180 355 161 384 148 398 c 0
 128 421 118 424 76 424 c 0
 37 424 19 432 19 450 c 0
 19 456 21 464 26 473 c 0
 34 488 83 496 133 496 c 0
 181 496 231 489 247 474 c 0
 252 470 249 457 240 444 c 0
 233 433 230 427 230 420 c 0
 230 400 256 381 267 381 c 0
 282 381 293 397 293 424 c 0
 293 433 291 447 291 456 c 0
 291 483 309 492 363 492 c 0
 371 492 379 491 389 491 c 0
 452 488 454 488 454 466 c 0
 454 449 446 440 421 428 c 0
 403 419 377 397 363 378 c 0
 349 359 332 340 326 333 c 0
 319 326 315 317 315 306 c 0
 315 290 324 269 340 244 c 0
 354 224 371 195 380 179 c 0
 389 163 409 144 427 137 c 0
 453 126 459 119 459 97 c 0
 459 83 455 69 449 65 c 0
 442 60 403 58 366 58 c 0
 331 58 297 60 290 64 c 0
 283 68 279 76 279 84 c 0
 279 95 285 108 297 120 c 2
 316 140 l 1
 295 172 l 2
 284 190 270 205 264 205 c 0
 249 205 207 153 207 133 c 0
 207 124 215 113 225 110 c 0
 236 106 242 100 242 92 c 0
 242 85 238 78 230 71 c 0
 220 62 147 56 93 56 c 0
EndSplineSet
Validated: 1
EndChar

StartChar: y
Encoding: 121 121 61
Width: 540
VWidth: 0
Flags: W
HStem: -145 74<148.845 193.354> -133 149<75.0532 137.845> 436 20G<84.5 100.5 378.5 402.5>
VStem: 36 112<-70.8176 -4.72347> 58 123<369 426.5>
LayerCount: 2
Fore
SplineSet
103 -133 m 0x68
 75 -121 36 -70 36 -45 c 0
 36 -22 72 16 93 16 c 0x70
 126 16 148 -7 148 -40 c 0
 148 -60 156 -71 166 -71 c 0xb0
 176 -71 189 -60 199 -40 c 0
 207 -24 218 -6 223 0 c 0
 233 13 238 26 238 41 c 0
 238 56 233 73 224 94 c 0
 201 146 182 194 150 286 c 0
 132 338 118 361 89 386 c 0
 66 406 58 415 58 424 c 0
 58 429 60 433 63 439 c 0
 70 452 74 456 95 456 c 0
 106 456 121 455 143 453 c 0
 197 448 221 444 221 433 c 0
 221 428 215 421 204 412 c 0
 188 400 181 389 181 375 c 0
 181 363 186 348 197 326 c 0
 207 306 226 258 240 219 c 0
 254 180 269 147 274 147 c 0
 279 147 288 162 295 182 c 0
 302 202 318 241 329 268 c 0
 348 314 357 341 357 360 c 0
 357 377 350 387 337 398 c 0
 324 408 316 420 316 428 c 0
 316 429 317 431 317 432 c 0
 322 444 358 453 399 453 c 0
 406 453 414 453 421 452 c 0
 437 451 460 450 472 449 c 0
 487 448 495 440 495 430 c 0
 495 420 486 407 470 397 c 0
 428 370 431 375 364 187 c 0
 351 150 334 112 327 104 c 0
 320 96 310 72 305 51 c 0
 300 30 283 -16 266 -53 c 0
 240 -108 229 -122 203 -133 c 0x68
 183 -141 168 -145 152 -145 c 0xa8
 136 -145 121 -141 103 -133 c 0x68
EndSplineSet
Validated: 1
EndChar

StartChar: z
Encoding: 122 122 62
Width: 540
VWidth: 0
Flags: W
HStem: 43 75<165.728 352.115> 422 60<127.737 299.112> 469 20G<314.5 344.5>
VStem: 40 69<325.003 403.182> 300 121<397 454> 374 76<127.536 221.054>
LayerCount: 2
Fore
SplineSet
189 43 m 0xb4
 117 46 53 51 47 55 c 0
 39 60 35 68 35 77 c 0
 35 96 52 124 87 162 c 0
 158 240 214 301 257 344 c 0
 285 372 300 391 300 403 c 0
 300 418 278 422 232 422 c 0
 229 422 226 422 223 422 c 0
 141 421 124 412 109 364 c 0
 98 329 92 322 75 322 c 0
 52 322 40 343 40 380 c 0
 40 390 41 402 43 414 c 0
 48 449 55 464 74 478 c 0
 88 488 96 493 112 493 c 0
 123 493 138 491 161 487 c 0
 183 483 206 482 227 482 c 0xd8
 241 482 253 482 262 484 c 0
 282 487 304 489 325 489 c 0
 364 489 401 483 411 473 c 0
 417 467 421 458 421 450 c 0xb8
 421 447 420 444 419 440 c 0
 412 418 267 249 203 188 c 0
 178 164 164 148 164 138 c 0
 164 124 188 120 238 118 c 0
 247 118 257 118 266 118 c 0
 296 118 326 119 337 122 c 0
 361 128 366 135 374 172 c 0
 382 210 397 232 417 232 c 0
 434 232 450 158 450 107 c 0
 450 88 448 72 443 64 c 0
 433 48 396 36 361 36 c 0
 358 36 356 36 353 36 c 0
 335 37 261 40 189 43 c 0xb4
EndSplineSet
Validated: 1
EndChar

StartChar: cent
Encoding: 162 162 102
Width: 540
VWidth: 0
Flags: W
HStem: 7 67<232.095 291.532> 402 37<165.19 253.692>
VStem: 41 38<142.732 313.435> 246 109<279.328 372.766> 254 102<269.373 326.625 327.468 388.719> 365 75<485.72 562.297>
LayerCount: 2
Fore
SplineSet
79 -112 m 0xec
 79 -111 79 -109 79 -107 c 0
 79 -86 97 -36 108 -29 c 0
 112 -27 118 -12 121 3 c 0
 122 9 123 14 123 18 c 0
 123 31 116 40 98 57 c 0
 83 72 64 95 57 109 c 0
 46 129 41 164 41 201 c 0
 41 237 46 277 56 308 c 0
 75 369 100 402 144 424 c 0
 164 434 198 439 230 439 c 0
 255 439 278 436 290 429 c 0
 296 426 300 424 304 424 c 0
 311 424 319 430 330 443 c 0
 341 456 357 488 365 515 c 0
 376 553 383 565 401 569 c 0
 409 571 415 572 421 572 c 0
 433 572 440 567 440 554 c 0
 440 534 425 497 395 434 c 0
 372 385 355 339 355 327 c 0
 355 326 355 326 355 325 c 0xf4
 356 323 356 321 356 318 c 0
 356 297 334 260 314 254 c 0
 304 251 289 234 282 216 c 0
 275 198 262 179 255 174 c 0
 242 165 229 118 229 92 c 0
 229 85 230 79 232 77 c 0
 234 75 238 74 242 74 c 0
 265 74 311 103 324 128 c 0
 342 163 348 174 357 174 c 0
 361 174 364 172 370 169 c 0
 382 163 388 152 388 138 c 0
 388 118 375 92 350 65 c 0
 311 23 273 7 214 7 c 0
 182 7 179 5 143 -60 c 0
 119 -105 101 -127 90 -127 c 0
 85 -127 81 -122 79 -112 c 0xec
171 101 m 0
 177 108 199 149 220 192 c 0
 245 242 254 261 254 279 c 0xec
 254 286 252 293 250 301 c 0
 247 311 246 319 246 327 c 0
 246 337 248 346 253 355 c 0
 257 363 259 368 259 373 c 0
 259 378 257 383 252 389 c 0
 244 398 233 402 220 402 c 0
 202 402 179 394 157 378 c 0
 108 342 99 329 86 273 c 0
 81 253 79 240 79 227 c 0
 79 211 82 196 89 171 c 0
 97 142 109 111 116 103 c 0
 124 94 134 89 145 89 c 0
 155 89 164 93 171 101 c 0
EndSplineSet
Validated: 1
EndChar

StartChar: onequarter
Encoding: 188 188 128
Width: 540
VWidth: 0
Flags: W
HStem: -177 70<195.014 285.813 379.035 432.277> -170 63<191.255 285.614 380.252 454.239> -68 61<201.565 287.633 379.43 454.639> 240 62<33.7031 330.45> 248 39<331.286 482.821> 326 55<131.213 273.55> 346 31<300.703 438.869> 348 57<248.223 306.979> 489 21G<282 288.5>
VStem: 79 122<-43.5 20> 276 24<497.032 600.686>
LayerCount: 2
Fore
SplineSet
167 611 m 0x20e0
 158 611 154 622 154 631 c 0
 154 648 173 661 215 676 c 0
 241 685 268 698 275 703 c 0
 278 705 280 707 282 708 c 1
 284 708 l 2
 295 708 300 687 300 640 c 0
 300 588 294 489 283 489 c 0
 281 489 279 493 276 500 c 0
 273 508 270 535 270 558 c 0
 270 581 264 608 257 618 c 0
 251 627 247 631 239 631 c 0
 231 631 174 611 167 611 c 0x20e0
190 384 m 0
 204 384 222 381 233 381 c 0x24e0
 246 381 254 384 260 392 c 0
 267 400 275 405 282 405 c 0x21e0
 289 405 296 400 303 389 c 0
 309 378 317 374 336 374 c 0
 348 374 374 377 389 377 c 0
 421 377 439 371 439 360 c 0
 439 346 419 346 383 346 c 0x22e0
 372 346 360 347 346 347 c 0
 331 348 317 348 305 348 c 0x21e0
 269 348 246 345 230 338 c 0
 214 332 199 326 196 326 c 0x24e0
 195 327 179 330 162 333 c 0
 139 337 127 348 127 358 c 0
 127 377 163 384 190 384 c 0
30 272 m 0
 30 298 114 302 162 302 c 0x30e0
 211 302 269 297 309 290 c 0
 319 288 332 287 345 287 c 0
 370 287 390 292 413 292 c 0
 443 292 448 283 470 276 c 0
 498 267 486 253 452 254 c 1
 444 254 l 2
 420 254 405 248 387 248 c 0x28e0
 378 248 367 250 360 253 c 0
 350 258 337 260 331 256 c 0
 320 249 262 245 128 241 c 0
 117 241 106 240 98 240 c 0x30e0
 60 240 49 244 39 255 c 0
 33 261 30 267 30 272 c 0
429 -62 m 0
 406 -62 379 -67 379 -84 c 0
 379 -95 391 -107 408 -107 c 0
 441 -107 459 -120 459 -135 c 0
 459 -145 451 -156 433 -165 c 0
 418 -173 376 -177 328 -177 c 0xa0e0
 294 -177 257 -175 225 -170 c 0x60e0
 201 -167 189 -153 189 -139 c 0
 189 -123 205 -107 233 -107 c 0xa0e0
 256 -107 288 -91 288 -80 c 0
 288 -71 244 -69 195 -68 c 0
 117 -67 79 -56 79 -31 c 0
 79 -17 91 1 113 25 c 0
 131 44 149 66 154 75 c 0
 159 84 169 91 177 91 c 0
 185 91 201 99 211 108 c 0
 244 138 315 184 330 186 c 1
 332 186 l 1
 336 184 342 152 345 115 c 0
 351 38 367 -5 393 -5 c 0
 395 -5 397 -4 399 -4 c 0
 401 -4 403 -3 405 -3 c 0
 428 -3 465 -31 465 -47 c 0
 465 -59 446 -62 429 -62 c 0
201 17 m 0
 201 5 251 -7 264 -7 c 0
 279 -7 291 -2 296 8 c 0
 304 23 310 64 310 92 c 0
 310 107 310 122 300 122 c 0
 299 122 298 122 297 122 c 0
 280 119 245 87 219 49 c 0
 208 32 201 23 201 17 c 0
EndSplineSet
Validated: 1
EndChar

StartChar: onehalf
Encoding: 189 189 129
Width: 540
VWidth: 0
Flags: W
HStem: -154 52<264.049 362.384> 178 58<207.037 357.594> 178 45<207 357.594> 272 54<70.6596 430.533> 272 45<45.1976 241.249 248.748 504.715> 351 53<117.833 214.159> 355 58<293.844 407.111> 651 45<123.144 206.694>
VStem: 94 96<-101.577 -30.5> 117 90<71.5778 176.805> 242 46<424.305 655.759> 377 54<79.5955 158.454>
LayerCount: 2
Fore
SplineSet
265 747 m 1x8570
 280 728 l 2
 289 717 292 705 292 665 c 0
 292 646 291 620 290 584 c 0
 289 545 288 515 288 492 c 0
 288 413 299 413 348 413 c 0
 393 413 414 407 414 393 c 0
 414 389 412 384 409 379 c 0
 398 363 378 355 338 355 c 0x8370
 321 355 301 356 276 359 c 0
 253 361 232 363 215 363 c 0
 197 363 183 361 175 358 c 0
 163 353 157 351 152 351 c 0
 146 351 142 355 128 364 c 0
 115 373 109 383 109 391 c 0
 109 398 114 404 124 404 c 0
 195 408 230 415 236 424 c 0
 240 430 242 468 242 511 c 0
 242 575 238 652 232 656 c 0
 230 657 226 658 219 658 c 0
 208 658 193 656 177 654 c 0
 164 652 152 651 143 651 c 0
 133 651 126 652 123 655 c 0
 119 659 117 663 117 667 c 0
 117 679 130 692 150 696 c 0
 164 699 195 711 220 724 c 2
 265 747 l 1x8570
245 326 m 0x9130
 325 326 403 324 411 319 c 0
 414 317 421 317 431 317 c 0x8930
 439 317 448 317 457 318 c 0
 463 319 467 319 472 319 c 0
 488 319 499 315 505 308 c 0
 511 301 513 292 510 289 c 0
 499 278 444 272 364 272 c 0
 353 272 340 272 328 272 c 0
 320 272 313 272 305 272 c 0
 255 272 212 269 205 266 c 0
 196 261 188 263 184 269 c 0
 181 273 165 276 145 276 c 0
 142 276 139 276 136 276 c 0
 119 275 105 275 93 275 c 0
 55 275 45 280 45 293 c 0
 45 302 56 313 70 318 c 0
 83 323 165 326 245 326 c 0x9130
248 236 m 0xc170
 250 236 251 236 253 236 c 0
 285 236 340 227 366 217 c 0
 382 211 403 192 413 175 c 0
 425 155 431 137 431 119 c 0
 431 60 366 13 248 -7 c 0
 211 -13 190 -25 190 -36 c 0
 190 -43 198 -49 214 -53 c 0
 228 -56 250 -68 264 -80 c 0
 281 -94 297 -102 313 -102 c 0
 335 -102 358 -88 383 -60 c 0
 404 -37 415 -28 422 -28 c 0
 425 -28 428 -30 431 -33 c 0
 434 -37 436 -43 436 -49 c 0
 436 -71 419 -104 393 -127 c 0
 375 -144 339 -154 309 -154 c 0
 291 -154 276 -150 266 -143 c 0
 256 -136 243 -132 237 -134 c 0
 231 -136 222 -131 217 -121 c 0
 209 -106 196 -98 184 -98 c 0
 174 -98 164 -104 156 -115 c 0
 147 -129 139 -136 130 -136 c 0
 122 -136 114 -131 104 -120 c 0
 97 -112 94 -107 94 -100 c 0
 94 -91 99 -78 111 -52 c 0
 124 -24 140 -2 147 -2 c 0
 154 -2 166 4 172 12 c 0
 187 30 239 52 267 52 c 0
 306 52 359 73 370 94 c 0
 374 102 377 110 377 117 c 0
 377 123 375 130 371 138 c 0
 358 167 327 178 260 178 c 2xc1b0
 207 178 l 1
 207 135 l 2
 207 85 203 78 168 63 c 0
 158 58 150 56 144 56 c 0
 138 56 133 58 129 62 c 0
 121 69 117 84 117 102 c 0
 117 142 135 196 157 196 c 0
 164 196 171 203 174 210 c 0
 177 217 190 223 202 223 c 0xa170
 214 223 226 226 229 231 c 0
 231 234 238 236 248 236 c 0xc170
EndSplineSet
Validated: 1
EndChar

StartChar: threequarters
Encoding: 190 190 130
Width: 540
VWidth: 0
Flags: W
HStem: -142 25<201.765 230.235> -131 18<358.773 425.511> -24 25<195.877 249.83> 127 36<231.44 266.682> 272 30<32.579 88.5931 383.772 507.552> 280 18<108.005 134.996> 282 25<163.54 181.091> 361 18<261.004 273.859> 481 20G<152.5 167.5> 524 35<274.173 331.884> 680 47<220.975 328>
VStem: 75 99<0.5 50.5> 108 27<280.012 297.988> 111 83<422.423 489.67> 111 75<398.739 477.515> 117 90<580.364 665.509> 153 33<384 422> 261 13<362.186 378.297> 299 29<23.0935 83.8437> 306 27<-90.16 -29.4977> 306 18<100.008 157.359> 359 54<580.252 645.987> 377 57<409.447 495.947>
LayerCount: 2
Fore
SplineSet
200 -133 m 0xb1e040
 202 -126 211 -119 220 -117 c 0
 230 -115 235 -118 232 -126 c 0
 230 -133 221 -140 212 -142 c 0
 202 -144 197 -141 200 -133 c 0xb1e040
274 -135 m 0
 259 -132 248 -124 248 -116 c 0
 248 -108 258 -101 274 -98 c 0
 294 -95 306 -81 306 -64 c 0xb1e050
 306 -56 303 -47 298 -37 c 0
 293 -28 289 -24 277 -24 c 0
 267 -24 253 -26 228 -31 c 0
 198 -37 172 -40 147 -40 c 0
 130 -40 114 -38 97 -36 c 0
 93 -35 85 -25 79 -13 c 0
 76 -7 75 -2 75 3 c 0
 75 13 82 21 103 41 c 0
 121 58 154 85 176 100 c 0
 198 115 218 135 221 145 c 0
 224 155 231 163 236 163 c 0
 241 163 261 176 280 191 c 0
 297 204 314 214 321 214 c 0
 322 214 322 213 323 213 c 0
 327 211 329 197 329 180 c 0
 329 174 329 168 328 161 c 0xb1f060
 326 135 324 111 324 107 c 0
 324 103 320 100 315 100 c 0
 310 100 306 111 306 126 c 0xb1e048
 306 147 301 159 293 159 c 0
 288 159 283 154 277 145 c 0
 271 135 261 127 255 127 c 0
 249 127 238 119 232 110 c 0
 226 101 212 89 201 83 c 0
 184 74 174 59 174 42 c 0
 174 35 176 26 180 19 c 0
 186 7 200 1 215 1 c 0
 228 1 242 6 253 16 c 0
 266 28 272 28 283 19 c 0
 301 4 319 17 305 34 c 0
 301 39 299 43 299 49 c 0
 299 55 301 61 305 70 c 0
 310 82 315 87 319 87 c 0
 325 87 328 72 328 43 c 0xb1f060
 328 12 332 5 346 5 c 0
 370 5 374 -14 351 -20 c 0
 337 -24 333 -32 333 -56 c 0
 333 -94 348 -107 396 -113 c 0
 455 -121 439 -137 378 -131 c 0x71e050
 366 -130 355 -129 346 -129 c 0
 331 -129 321 -131 319 -134 c 0
 316 -139 311 -143 308 -142 c 0
 305 -141 289 -138 274 -135 c 0
42 279 m 0
 27 285 28 287 50 297 c 0
 58 301 65 302 71 302 c 0
 82 302 89 297 89 290 c 0
 89 287 88 284 86 281 c 0
 82 275 77 272 69 272 c 0x39e040
 62 272 53 274 42 279 c 0
380 289 m 0
 359 306 352 322 371 310 c 0
 377 306 410 303 445 303 c 0
 495 303 508 300 508 289 c 0
 508 279 483 273 454 273 c 0
 425 273 393 279 380 289 c 0
108 289 m 0x35e840
 108 294 115 298 122 298 c 0
 129 298 135 294 135 289 c 0
 135 284 129 280 122 280 c 0
 115 280 108 284 108 289 c 0x35e840
163 293 m 0
 165 301 171 307 176 307 c 0
 189 306 186 287 172 282 c 0x33e040
 164 279 161 284 163 293 c 0
164 367 m 0
 158 369 153 377 153 384 c 0x31e0c0
 153 391 147 397 140 397 c 0
 124 397 111 421 111 446 c 0
 111 451 111 455 112 460 c 0
 118 484 142 501 163 501 c 0
 172 501 181 498 187 490 c 0
 191 483 194 474 194 465 c 0x31e440
 194 462 194 459 193 456 c 0
 189 442 186 431 186 422 c 0x31e240
 186 407 193 398 209 390 c 0
 223 383 232 374 229 369 c 0
 226 364 213 362 198 362 c 0
 186 362 173 363 164 367 c 0
261 370 m 0
 261 375 266 379 271 379 c 0
 276 379 277 375 274 370 c 0
 271 365 267 361 265 361 c 0
 263 361 261 365 261 370 c 0
346 400 m 2
 367 420 377 439 377 456 c 0x31e042
 377 483 352 507 304 524 c 0
 282 532 270 542 270 550 c 0
 270 555 277 559 290 559 c 0
 301 559 322 568 337 580 c 0
 352 592 359 598 359 607 c 0
 359 612 357 617 353 625 c 0
 347 638 337 649 330 649 c 0
 323 649 313 655 307 662 c 0
 301 669 285 676 272 679 c 0
 269 680 267 680 264 680 c 0
 236 680 207 653 207 622 c 0
 207 596 183 568 160 568 c 0
 144 568 117 601 117 621 c 0
 117 628 126 650 136 671 c 0
 153 704 192 734 214 734 c 0
 220 734 224 732 227 728 c 0
 232 719 237 719 252 728 c 0
 266 736 275 737 283 730 c 0
 289 725 301 723 309 726 c 0
 311 727 314 727 317 727 c 0
 339 727 376 704 395 677 c 0
 407 660 413 643 413 626 c 0x31e144
 413 611 408 595 399 579 c 0
 392 568 389 560 389 554 c 0
 389 546 395 539 408 523 c 0
 425 503 434 479 434 457 c 0x31e042
 434 433 424 410 404 393 c 0
 386 378 366 370 345 370 c 2
 314 370 l 1
 346 400 l 2
EndSplineSet
Validated: 1
EndChar

StartChar: quotedbl
Encoding: 34 34 230
Width: 540
VWidth: 0
Flags: W
HStem: 245 331
VStem: 71 148<407.77 525.573> 108 72<261.478 398.922> 270 154<410.302 537.216> 305 68<261.344 382.549>
LayerCount: 2
Fore
SplineSet
335 576 m 0x90
 343 576 351 573 363 567 c 0
 403 546 424 516 424 482 c 0x90
 424 466 420 450 411 433 c 0
 405 421 394 384 388 352 c 0
 382 320 375 285 373 274 c 0
 370 258 361 250 350 250 c 0
 342 250 333 255 324 264 c 0
 314 275 306 288 305 293 c 0x88
 303 326 298 355 285 413 c 0
 276 454 270 481 270 500 c 0
 270 525 279 538 298 554 c 0
 315 568 325 575 335 576 c 0x90
143 566 m 0
 144 566 146 566 147 566 c 0
 159 566 169 557 186 539 c 0
 208 515 219 492 219 465 c 0xc0
 219 445 213 424 202 400 c 0
 190 375 180 340 180 318 c 0
 180 271 167 245 149 245 c 0
 141 245 132 250 123 261 c 0
 113 271 108 293 108 322 c 0xa0
 108 347 99 393 87 425 c 0
 76 455 71 476 71 492 c 0xc0
 71 514 81 528 104 545 c 0
 121 558 132 565 143 566 c 0
EndSplineSet
Validated: 1
EndChar

StartChar: numbersign
Encoding: 35 35 231
Width: 540
VWidth: 0
Flags: W
HStem: 150 76<377.993 472.862> 163 50<183.156 272.854> 163 18<50.1413 62.9964> 330 27<96.9609 158.088> 343 13<54.7031 70.814> 345 19<247.945 319.26> 430 20G<208.5 215.5>
VStem: 50 13<164.186 180.297> 54 18<343.004 355.859> 72 64<-47.5331 90.3948> 99 63<77.0151 157.013> 190 88<-175.425 -51.4066> 190 37<381.789 448.931> 324 49<241.843 311.801> 426 33<613.34 677.813>
LayerCount: 2
Fore
SplineSet
208 -173 m 0x8616
 195 -164 190 -159 190 -143 c 0
 190 -136 191 -126 193 -113 c 0
 196 -88 205 -60 212 -50 c 0
 219 -40 225 -24 225 -15 c 0
 225 -6 234 19 244 40 c 0
 254 61 264 96 267 120 c 2
 273 163 l 1x2216
 228 163 l 2
 180 163 162 152 162 122 c 0x4236
 162 111 156 97 149 91 c 0
 142 85 136 69 136 56 c 0
 136 55 136 55 136 54 c 0
 136 14 111 -94 91 -138 c 0
 79 -166 63 -179 51 -179 c 0
 39 -179 29 -166 29 -143 c 0
 29 -136 30 -128 32 -119 c 0
 42 -72 57 -22 65 -13 c 0
 69 -8 72 4 72 14 c 0x4246
 72 24 79 48 87 68 c 0
 95 89 99 113 99 132 c 0
 99 148 96 160 90 162 c 0
 84 164 81 168 81 174 c 0
 81 186 92 204 112 223 c 0
 129 239 144 262 146 273 c 0
 148 288 153 295 159 295 c 0
 167 295 175 282 176 260 c 0
 177 241 180 223 183 220 c 0
 186 217 210 213 236 213 c 0
 240 213 244 213 248 213 c 0
 281 213 286 218 303 243 c 0
 316 262 324 287 324 308 c 0
 324 336 321 343 304 345 c 0
 302 345 300 345 298 345 c 0x4626
 275 345 229 332 219 322 c 0
 215 318 199 316 183 316 c 0
 164 316 145 319 140 323 c 0
 136 327 125 330 114 330 c 0
 89 330 87 356 112 357 c 0
 152 358 179 378 190 415 c 0
 197 439 205 450 212 450 c 0
 219 450 225 438 227 413 c 0x122e
 229 380 232 374 256 368 c 0
 266 365 276 364 285 364 c 0
 333 364 361 406 382 500 c 0
 394 554 413 585 433 586 c 0
 434 586 434 584 434 582 c 0
 434 576 432 565 427 552 c 0
 420 533 414 491 414 458 c 0
 414 398 414 397 443 384 c 0
 459 377 480 369 489 366 c 0
 499 363 504 358 504 352 c 0
 504 341 487 327 459 319 c 0
 443 314 425 311 413 311 c 0
 409 311 405 311 403 312 c 0
 401 313 399 313 397 313 c 0
 382 313 373 295 373 274 c 0
 373 266 374 258 377 250 c 0
 384 230 392 226 416 226 c 0
 449 226 485 203 485 184 c 0
 485 182 485 181 484 179 c 0
 479 167 421 152 363 150 c 0
 352 150 341 147 337 143 c 0
 333 139 327 102 324 59 c 0
 321 16 313 -22 308 -25 c 0
 293 -35 278 -79 278 -118 c 0
 278 -119 278 -121 278 -122 c 0
 278 -125 278 -128 278 -130 c 0
 278 -154 273 -164 259 -174 c 0
 247 -182 240 -187 234 -187 c 0
 228 -187 221 -182 208 -173 c 0x8616
50 172 m 0x2306
 47 177 48 181 53 181 c 0
 58 181 63 177 63 172 c 0
 63 167 61 163 59 163 c 0
 57 163 53 167 50 172 c 0x2306
54 353 m 0x0a86
 54 358 58 359 63 356 c 0x0b06
 68 353 72 349 72 347 c 0x0a86
 72 345 68 343 63 343 c 0x0b06
 58 343 54 348 54 353 c 0x0a86
427 617 m 0
 426 619 426 622 426 625 c 0
 426 646 441 685 451 685 c 0
 456 685 459 674 459 661 c 0
 459 643 454 620 446 613 c 0
 435 604 432 605 427 617 c 0
EndSplineSet
Validated: 1
EndChar

StartChar: dollar
Encoding: 36 36 232
Width: 540
VWidth: 0
Flags: W
HStem: -16 60<244.562 280.766> -8 67<133.112 172.396> 298 41<115.235 192.702> 441 20G<431.5 435.5> 505 18<158.859 165.743> 523 18<279.003 296.997> 640 27<205.828 222.64 315.012 332.988>
VStem: 55 72<69.0188 149.53> 72 24<370.272 452.736> 99 9<341 370> 181 57<-148.707 -17.8519> 194 31<72.1253 184.84> 199 34<549.222 600.855> 279 18<523.003 540.997> 286 69<-166.803 -19.1421> 303 41<214.214 395.589> 313 33<78 285.718 286.234 374.108 541.289 611.881> 315 18<640.005 666.996> 363 87<230 281> 398 52<362.658 444.511> 454 30<129.328 210.766>
LayerCount: 2
Fore
SplineSet
317 -173 m 0x720218
 298 -166 286 -137 286 -100 c 0
 286 -91 287 -82 288 -72 c 0
 290 -59 291 -49 291 -41 c 0
 291 -27 288 -22 281 -19 c 0
 276 -17 271 -16 267 -16 c 0
 247 -16 238 -41 238 -98 c 0xb22218
 238 -142 235 -166 228 -168 c 0
 227 -168 226 -168 225 -168 c 0xb21008
 208 -168 181 -117 181 -83 c 0
 181 -82 181 -81 181 -80 c 0
 181 -78 181 -75 181 -73 c 0
 181 -39 167 -8 150 -8 c 0
 126 -8 64 59 58 93 c 0
 56 104 55 113 55 122 c 0
 55 156 70 176 95 176 c 0
 121 176 142 151 142 128 c 0
 142 121 141 115 137 109 c 0
 131 99 127 94 127 89 c 0
 127 83 134 79 149 69 c 0
 158 63 164 59 168 59 c 0x732008
 174 59 177 67 185 86 c 0
 190 100 194 118 194 131 c 0
 194 135 194 138 193 141 c 0
 192 145 192 148 192 152 c 0
 192 170 202 187 212 187 c 0
 214 187 215 186 217 185 c 0
 221 182 225 152 225 119 c 0
 225 63 229 44 250 44 c 0xb31008
 256 44 264 46 274 49 c 2
 305 59 l 1
 311 152 l 2
 313 175 313 196 313 213 c 0x731088
 313 239 312 258 308 266 c 0
 305 273 303 280 303 286 c 0
 303 291 304 296 307 301 c 0
 312 309 317 337 319 363 c 0
 323 426 341 429 342 368 c 0
 342 342 343 266 344 199 c 2x720108
 346 78 l 1x720088
 372 75 l 2
 374 75 375 75 377 75 c 0
 413 75 446 117 454 173 c 0
 458 199 463 211 468 211 c 0
 474 211 481 191 484 152 c 0
 485 143 485 136 485 129 c 0
 485 104 480 92 464 68 c 0
 451 49 421 23 398 10 c 2
 356 -13 l 1
 355 -82 l 2
 355 -144 346 -175 326 -175 c 0
 323 -175 320 -174 317 -173 c 0x720218
414 240 m 0
 408 247 398 253 392 253 c 0
 377 253 363 268 363 281 c 0
 363 285 364 288 367 291 c 0
 370 294 374 296 377 296 c 0
 383 296 389 291 399 282 c 0
 411 271 424 262 429 262 c 0
 437 262 450 243 450 230 c 0x320028
 450 227 448 226 444 226 c 0
 436 226 421 232 414 240 c 0
194 276 m 0x3ad008
 185 289 171 298 159 298 c 0
 137 298 99 325 99 341 c 0
 99 346 93 355 86 361 c 0
 77 368 72 388 72 416 c 0
 72 455 76 464 104 492 c 0
 122 509 142 523 148 523 c 0
 165 523 196 560 199 584 c 0
 201 597 205 604 210 604 c 0
 217 604 225 591 233 567 c 0x36c808
 238 551 241 542 241 535 c 0
 241 527 237 523 229 517 c 0
 220 510 204 505 193 505 c 0
 148 505 96 456 96 421 c 0
 96 416 97 411 99 407 c 0
 104 397 108 380 108 370 c 0
 108 351 127 339 147 339 c 0
 156 339 166 341 174 347 c 0
 186 355 194 359 202 359 c 0
 213 359 221 350 231 330 c 0
 238 316 241 306 241 297 c 0
 241 290 239 284 236 276 c 0
 230 262 223 255 217 255 c 0
 210 255 204 262 194 276 c 0x3ad008
407 372 m 0
 401 378 398 385 398 394 c 0
 398 410 409 431 430 460 c 0
 431 461 431 461 432 461 c 0
 439 461 450 434 450 413 c 0x320018
 450 380 441 361 427 361 c 0
 421 361 414 365 407 372 c 0
356 507 m 0
 346 512 331 520 324 524 c 0
 317 528 312 535 313 541 c 0
 314 547 317 563 319 578 c 0
 322 601 325 612 329 612 c 0
 334 612 340 594 346 557 c 0
 350 531 356 523 369 523 c 0x360088
 379 523 387 517 387 510 c 0
 387 494 381 493 356 507 c 0
279 532 m 0x360408
 279 537 283 541 288 541 c 0
 293 541 297 537 297 532 c 0
 297 527 293 523 288 523 c 0
 283 523 279 527 279 532 c 0x360408
203 640 m 0
 196 651 205 667 217 667 c 0
 228 667 228 643 217 636 c 0
 212 633 206 635 203 640 c 0
315 654 m 0x320048
 315 661 319 667 324 667 c 0
 329 667 333 661 333 654 c 0
 333 647 329 640 324 640 c 0
 319 640 315 647 315 654 c 0x320048
EndSplineSet
Validated: 1
EndChar

StartChar: percent
Encoding: 37 37 233
Width: 540
VWidth: 0
Flags: W
HStem: -30 67<353.63 410.513> 237 64<55.7329 140.544> 243 51<399.457 461.744> 514 40<202.144 227.906> 514 29<133.281 173.988> 559 27<280.214 304.995> 658 54<398.906 431.992>
VStem: 3 45<308.568 438.007> 200 32<376.432 430.582 523.094 550.858> 280 62<46.0425 164.394> 384 21<532.24 547.06> 405 36<694.513 711.997> 432 45<635.772 680.5> 473 63<117.066 236.465>
LayerCount: 2
Fore
SplineSet
423 712 m 0x87d0
 433 712 441 708 441 703 c 0x87d0
 441 698 449 694 459 694 c 0
 471 694 477 686 477 675 c 0x87c8
 477 667 473 657 465 650 c 0
 458 644 447 622 442 601 c 0
 437 580 427 556 419 550 c 0
 411 544 405 536 405 531 c 0x87d0
 405 526 397 511 388 498 c 0
 379 485 368 456 365 434 c 0
 362 412 352 384 342 372 c 0
 332 360 324 343 324 334 c 0
 324 325 316 308 306 295 c 0
 296 282 288 269 288 265 c 0
 288 261 280 242 270 222 c 0
 260 202 252 179 252 172 c 0
 252 165 244 147 234 132 c 0
 224 117 216 98 216 90 c 0
 216 63 105 -168 86 -181 c 0
 75 -188 72 -189 56 -182 c 0
 48 -179 44 -170 44 -156 c 0
 44 -128 60 -81 91 -21 c 0
 116 28 147 92 159 122 c 0
 171 152 188 184 197 194 c 0
 206 204 220 225 227 240 c 0
 234 255 255 297 273 334 c 0
 291 371 313 412 320 424 c 0
 327 436 339 461 347 478 c 0
 355 495 368 521 375 535 c 0
 380 546 384 561 384 573 c 0x87e0
 384 577 384 579 383 582 c 0
 382 585 382 588 382 591 c 0
 382 602 388 610 405 623 c 0x87d0
 420 634 432 647 432 651 c 0x87c8
 432 656 429 658 424 658 c 0
 416 658 402 651 392 640 c 0
 383 630 372 622 368 622 c 0
 363 622 360 625 360 630 c 0
 360 639 368 654 382 669 c 0
 394 682 405 698 405 703 c 0
 405 708 413 712 423 712 c 0x87d0
335 622 m 0
 345 623 351 617 346 602 c 0
 337 574 324 559 308 559 c 0
 300 559 287 552 278 544 c 0
 263 530 261 530 256 544 c 0
 255 546 255 549 255 552 c 0
 255 567 268 586 283 586 c 0
 289 586 301 594 309 604 c 0
 319 615 328 621 335 622 c 0
220 554 m 0x97c0
 223 554 226 553 228 551 c 0
 231 548 232 543 232 538 c 0
 232 527 226 514 217 514 c 0
 212 514 205 518 202 523 c 0
 201 525 200 528 200 530 c 0
 200 541 211 553 220 554 c 0x97c0
133 547 m 0
 139 547 145 545 154 543 c 0
 190 534 194 520 162 514 c 0
 126 507 86 482 75 459 c 0
 60 428 48 375 48 348 c 0
 48 343 48 338 49 335 c 0
 56 314 75 301 97 301 c 0
 102 301 106 302 111 303 c 0
 136 309 189 371 202 409 c 0
 207 424 213 431 218 431 c 0
 225 431 229 417 229 392 c 0
 229 391 229 389 229 388 c 0
 228 340 189 273 150 250 c 0
 134 241 126 237 114 237 c 0xcfc0
 104 237 92 240 72 246 c 0
 30 258 23 265 10 307 c 0
 5 324 3 341 3 359 c 0
 3 399 14 436 33 444 c 0
 45 449 54 460 54 466 c 0
 54 485 74 523 84 523 c 0
 89 523 100 529 109 537 c 0
 116 544 123 547 133 547 c 0
450 294 m 0xa7c4
 465 293 477 286 499 267 c 0
 532 238 535 234 536 185 c 0
 536 183 536 181 536 179 c 0
 536 118 508 47 465 4 c 0
 441 -20 422 -30 399 -30 c 0
 393 -30 386 -29 379 -28 c 0
 353 -23 316 -1 295 24 c 0
 284 36 280 55 280 77 c 0
 280 126 303 191 341 230 c 0
 391 281 399 287 433 293 c 0
 439 294 445 294 450 294 c 0xa7c4
439 243 m 0
 432 243 422 238 408 229 c 0
 382 212 342 131 342 94 c 0
 342 70 364 37 380 37 c 0
 385 37 402 50 418 66 c 0
 434 82 454 117 462 143 c 0
 469 166 473 178 473 188 c 0
 473 197 470 205 464 217 c 0
 455 235 448 243 439 243 c 0
EndSplineSet
Validated: 1
EndChar

StartChar: ampersand
Encoding: 38 38 234
Width: 540
VWidth: 0
Flags: W
HStem: -30 70<83.5601 210.065> -18 58<353.451 455.525> 313 30<368.103 412.247> 451 33<231.143 248.27> 514 36<129.487 195.344>
VStem: 1 37<89.0952 182.95> 68 41<382.529 496.607> 97 96<294.795 335.125> 231 13<472.151 483.948> 252 56<85.813 137.172> 423 32<280.048 304.545>
LayerCount: 2
Fore
SplineSet
163 550 m 0xbee0
 183 550 198 541 198 518 c 0
 198 516 187 514 173 514 c 0
 136 514 117 494 111 449 c 0
 110 440 109 432 109 426 c 0xbee0
 109 408 115 398 132 379 c 2
 158 350 l 1
 185 376 l 2
 200 390 216 408 219 417 c 0
 223 427 233 433 241 433 c 0
 247 433 252 429 252 422 c 0
 252 399 233 343 225 343 c 0
 220 343 210 331 202 316 c 0
 196 304 193 297 193 289 c 0
 193 281 196 273 202 260 c 0
 209 244 227 216 242 199 c 2
 268 168 l 1
 282 199 l 2
 289 216 302 250 310 274 c 0
 327 321 357 343 404 343 c 0
 425 343 435 337 446 316 c 0
 452 305 455 293 455 286 c 0
 455 283 455 281 454 280 c 0
 448 270 423 268 423 278 c 0
 423 282 417 292 410 301 c 0
 404 309 400 313 395 313 c 0
 390 313 385 310 375 304 c 0
 359 294 349 274 339 233 c 0
 332 202 320 164 314 149 c 0
 310 139 308 132 308 126 c 0
 308 116 313 108 325 92 c 0
 350 58 379 40 407 40 c 0
 430 40 452 53 469 78 c 0
 481 96 491 105 498 105 c 0
 503 105 507 99 507 87 c 0
 507 84 506 81 506 77 c 0
 502 34 485 0 462 -9 c 0
 447 -15 432 -18 418 -18 c 0
 382 -18 346 1 300 40 c 0x7de0
 292 47 287 51 283 51 c 0
 277 51 272 45 260 30 c 0
 229 -9 186 -30 141 -30 c 0
 128 -30 116 -29 103 -25 c 0
 88 -21 60 -4 40 13 c 2
 4 44 l 1
 1 131 l 1
 -2 218 l 1
 49 268 l 2
 85 304 97 318 97 331 c 0xbde0
 97 338 94 345 88 355 c 0
 76 378 68 414 68 445 c 0
 68 457 69 469 72 479 c 0
 83 521 130 549 163 550 c 0xbee0
237 484 m 0
 239 484 241 484 244 482 c 0
 254 476 254 451 244 451 c 0
 240 451 234 457 231 464 c 0
 227 475 230 483 237 484 c 0
140 253 m 0
 116 253 70 213 53 178 c 0
 43 157 38 148 38 138 c 0
 38 129 42 119 50 101 c 0
 59 80 78 57 90 50 c 0
 102 43 117 40 134 40 c 0
 163 40 196 50 220 68 c 0
 237 81 252 97 252 103 c 0
 252 109 236 132 217 153 c 0
 198 174 174 205 165 222 c 0
 156 239 145 253 140 253 c 0
EndSplineSet
Validated: 1
EndChar

StartChar: quotesingle
Encoding: 39 39 235
Width: 540
VWidth: 0
Flags: W
HStem: 244 328<236.285 326.691>
VStem: 171 214<429.052 522.631> 220 125<262.453 414.7>
LayerCount: 2
Fore
SplineSet
236 255 m 0xa0
 231 261 224 293 220 325 c 0xa0
 216 357 204 404 192 430 c 0
 180 456 171 483 171 492 c 0
 171 519 214 565 244 571 c 0
 248 572 252 572 257 572 c 0
 298 572 357 541 375 508 c 0
 382 496 385 488 385 480 c 0xc0
 385 470 380 458 370 434 c 0
 359 409 348 361 345 329 c 0
 340 276 337 269 314 257 c 0
 298 249 281 244 266 244 c 0
 253 244 242 248 236 255 c 0xa0
EndSplineSet
Validated: 1
EndChar

StartChar: parenleft
Encoding: 40 40 236
Width: 540
VWidth: 0
Flags: W
VStem: 198 78<127.547 452.226> 244 131<-73.5749 -16.8618>
LayerCount: 2
Fore
SplineSet
318 -132 m 0x40
 289 -116 264 -80 244 -27 c 0x40
 234 -1 220 28 212 36 c 0
 201 48 199 81 198 204 c 0
 198 227 198 249 198 270 c 0
 198 328 199 376 200 388 c 0
 202 405 204 435 205 454 c 0
 206 478 214 495 232 512 c 0
 246 525 271 566 288 602 c 0
 311 651 321 665 334 665 c 0
 335 665 336 665 337 665 c 0
 351 663 358 653 358 635 c 0
 358 617 350 590 334 557 c 0
 300 485 276 379 276 299 c 0
 276 297 276 296 276 294 c 0x80
 277 231 300 93 315 65 c 0
 355 -8 375 -68 375 -105 c 0
 375 -129 367 -143 350 -143 c 0
 342 -143 331 -139 318 -132 c 0x40
EndSplineSet
Validated: 1
EndChar

StartChar: parenright
Encoding: 41 41 237
Width: 540
VWidth: 0
Flags: W
VStem: 360 69<327 366.229>
LayerCount: 2
Fore
SplineSet
254 -128 m 0
 241 -126 235 -119 235 -107 c 0
 235 -93 243 -71 261 -43 c 0
 276 -19 291 18 294 39 c 0
 297 60 303 82 308 88 c 0
 318 101 333 254 333 354 c 0
 333 358 339 358 346 355 c 0
 353 352 360 354 360 359 c 0
 360 364 351 370 340 373 c 0
 321 378 322 379 336 395 c 0
 356 417 355 424 333 424 c 0
 311 424 300 444 300 484 c 0
 300 494 301 506 302 519 c 0
 304 535 305 547 305 557 c 0
 305 577 300 589 289 607 c 2
 270 638 l 1
 291 663 l 1
 313 688 l 1
 337 650 l 2
 375 590 398 521 414 420 c 0
 419 386 426 355 428 351 c 0
 429 350 429 346 429 338 c 0
 429 316 427 270 423 220 c 0
 415 116 409 82 384 14 c 0
 353 -70 312 -133 289 -133 c 0
 288 -133 l 0
 281 -132 265 -130 254 -128 c 0
EndSplineSet
Validated: 1
EndChar

StartChar: asterisk
Encoding: 42 42 238
Width: 540
VWidth: 0
Flags: W
HStem: 441 155<228.145 291.558>
VStem: 315 48<596.872 736.689>
LayerCount: 2
Fore
SplineSet
302 318 m 0
 299 329 296 361 295 388 c 0
 293 424 289 441 272 441 c 0
 260 441 241 432 214 415 c 0
 182 395 152 385 132 385 c 0
 120 385 113 389 110 396 c 0
 110 397 l 0
 110 405 130 430 158 456 c 0
 191 487 203 498 203 507 c 0
 203 512 199 517 193 524 c 0
 184 535 166 547 155 551 c 0
 142 556 135 570 135 587 c 0
 135 601 140 618 151 631 c 2
 168 651 l 1
 218 623 l 2
 250 605 272 596 287 596 c 0
 308 596 315 614 315 653 c 0
 315 691 325 739 332 739 c 0
 353 738 360 718 363 657 c 0
 365 608 368 589 386 589 c 0
 398 589 417 597 449 612 c 0
 480 627 502 634 515 634 c 0
 523 634 527 631 527 626 c 0
 527 615 507 592 464 564 c 0
 437 546 414 526 414 520 c 0
 414 514 427 501 442 492 c 0
 487 465 527 427 527 410 c 0
 527 409 527 409 527 408 c 0
 525 399 524 395 511 395 c 0
 499 395 477 398 437 405 c 0
 415 409 395 411 384 411 c 0
 380 411 378 411 377 410 c 0
 373 408 367 389 364 368 c 0
 361 347 355 323 350 314 c 0
 344 303 335 298 326 298 c 0
 315 298 305 305 302 318 c 0
EndSplineSet
Validated: 1
EndChar

StartChar: comma
Encoding: 44 44 240
Width: 540
VWidth: 0
Flags: W
HStem: -144 331<241.283 258.385>
VStem: 241 110<-29.626 96.5>
LayerCount: 2
Fore
SplineSet
263 187 m 0
 316 187 351 135 351 58 c 0
 351 -11 307 -94 256 -124 c 0
 232 -138 219 -144 208 -144 c 0
 198 -144 191 -139 180 -128 c 0
 170 -118 162 -105 162 -100 c 0
 162 -95 180 -72 202 -49 c 0
 229 -22 241 -6 241 5 c 0
 241 12 236 16 225 20 c 0
 198 28 171 69 171 99 c 0
 171 138 222 187 263 187 c 0
EndSplineSet
Validated: 1
EndChar

StartChar: hyphen
Encoding: 45 45 241
Width: 540
VWidth: 0
Flags: W
HStem: 204 106<126 486.251>
LayerCount: 2
Fore
SplineSet
141 206 m 0
 108 215 91 230 91 249 c 0
 91 260 97 273 108 288 c 2
 126 311 l 1
 297 310 l 2
 435 309 470 306 481 295 c 0
 493 282 500 264 500 247 c 0
 500 237 497 226 492 219 c 0
 483 206 474 204 410 204 c 0
 394 204 374 204 351 204 c 0
 280 205 220 208 216 210 c 0
 212 212 200 210 188 206 c 0
 182 204 173 203 165 203 c 0
 157 203 148 204 141 206 c 0
EndSplineSet
Validated: 1
EndChar

StartChar: period
Encoding: 46 46 242
Width: 540
VWidth: 0
Flags: W
HStem: 43 198<171.599 283.097>
VStem: 126 207<89.1448 195.297>
LayerCount: 2
Fore
SplineSet
178 52 m 0
 157 64 126 118 126 142 c 0
 126 192 180 241 233 241 c 0
 234 241 234 241 235 241 c 0
 283 241 333 187 333 136 c 0
 333 96 272 43 226 43 c 0
 208 43 186 47 178 52 c 0
EndSplineSet
Validated: 1
EndChar

StartChar: slash
Encoding: 47 47 243
Width: 540
VWidth: 0
Flags: W
VStem: 18 77<-115.126 -36.4077> 207 90<323.885 367.292> 369 94<671.506 722.29>
LayerCount: 2
Fore
SplineSet
32 -114 m 0
 24 -106 18 -98 18 -96 c 0
 18 -80 57 14 105 112 c 0
 137 177 162 232 162 235 c 0
 162 238 172 255 184 273 c 0
 196 291 207 313 207 322 c 0
 207 331 214 347 223 359 c 0
 232 371 247 399 256 421 c 0
 272 461 305 537 347 624 c 0
 359 649 369 673 369 679 c 0
 369 685 382 709 397 732 c 0
 416 760 427 770 440 770 c 0
 441 770 443 770 444 770 c 0
 456 768 463 762 463 747 c 0
 463 717 437 655 379 535 c 0
 334 442 297 362 297 358 c 0
 297 354 289 341 279 329 c 0
 269 317 256 291 249 272 c 0
 227 211 172 82 128 -11 c 0
 113 -43 98 -78 95 -88 c 0
 89 -108 69 -122 51 -122 c 0
 44 -122 37 -119 32 -114 c 0
EndSplineSet
Validated: 1
EndChar

StartChar: zero
Encoding: 48 48 244
Width: 540
VWidth: 0
Flags: W
HStem: 1 62<256.532 350.941> 554 46<236.772 357.721>
VStem: 102 51<196.351 432.254> 457 49<186.875 440.864>
LayerCount: 2
Fore
SplineSet
271 5 m 0
 170 17 102 135 102 286 c 0
 102 304 103 323 105 342 c 0
 125 520 174 584 301 597 c 0
 316 599 327 600 337 600 c 0
 357 600 369 596 383 587 c 0
 436 554 459 523 483 456 c 0
 501 406 506 379 506 319 c 0
 506 313 506 307 506 300 c 0
 506 159 464 65 382 19 c 0
 359 6 344 1 319 1 c 0
 306 1 291 2 271 5 c 0
335 75 m 0
 416 117 457 194 457 304 c 0
 457 313 457 322 456 331 c 0
 450 457 406 525 319 547 c 0
 301 551 289 554 280 554 c 0
 269 554 261 550 249 542 c 0
 235 534 218 514 211 498 c 0
 204 483 188 454 175 434 c 0
 157 404 153 387 153 327 c 0
 153 231 178 159 230 109 c 0
 264 76 280 63 298 63 c 0
 308 63 320 67 335 75 c 0
EndSplineSet
Validated: 1
EndChar

StartChar: one
Encoding: 49 49 245
Width: 540
VWidth: 0
Flags: W
HStem: 27 82<37.6585 185.66> 38 73<290.421 432.468> 561 63<42.0899 179.794> 606 20G<179 199.5>
VStem: 195 80<130.388 516.671>
LayerCount: 2
Fore
SplineSet
37 42 m 0x88
 33 48 31 55 31 63 c 0
 31 69 33 76 35 82 c 0
 43 101 50 104 109 109 c 0
 157 113 178 119 187 130 c 0
 192 138 195 163 195 224 c 0
 195 254 194 293 193 344 c 0
 190 453 185 546 180 550 c 0
 176 554 146 559 113 561 c 0
 47 565 36 569 36 587 c 0
 36 610 63 620 137 624 c 0xa8
 158 625 173 626 185 626 c 0x18
 214 626 220 620 241 601 c 0
 261 582 269 572 269 561 c 0
 269 554 266 547 260 537 c 0
 256 531 255 524 255 517 c 0
 255 510 256 502 260 494 c 0
 265 481 272 401 275 315 c 0
 277 230 283 150 288 138 c 0
 295 120 304 116 355 111 c 0
 388 107 422 98 433 89 c 0
 451 74 451 74 434 58 c 0
 420 45 394 42 283 38 c 0x68
 209 36 125 32 97 29 c 0
 84 28 74 27 66 27 c 0
 48 27 43 31 37 42 c 0x88
EndSplineSet
Validated: 1
EndChar

StartChar: two
Encoding: 50 50 246
Width: 540
VWidth: 0
Flags: W
HStem: 1 84<296.474 395.149> 56 68<156.681 270.844> 547 43<200.876 356.31>
VStem: 73 72<41.3248 179.059> 91 92<409.89 527.296> 410 70<99.0075 178.271> 418 33<415.761 487.096>
LayerCount: 2
Fore
SplineSet
86 18 m 0x74
 77 31 73 51 73 75 c 0x74
 73 100 77 130 87 159 c 0
 101 202 114 220 161 261 c 0
 181 278 263 316 297 325 c 0
 337 335 405 404 414 442 c 0
 416 452 418 459 418 465 c 0
 418 477 411 483 391 495 c 0
 374 505 360 516 360 519 c 0
 360 536 309 547 265 547 c 0
 238 547 213 543 204 533 c 0
 190 520 183 502 183 488 c 0
 183 481 184 476 188 472 c 0
 194 466 198 450 198 433 c 0
 198 418 195 404 190 396 c 0
 186 390 169 382 151 379 c 0
 143 378 137 377 132 377 c 0
 118 377 113 383 103 403 c 0
 95 419 91 437 91 455 c 0x6a
 91 504 119 553 164 572 c 0
 193 584 233 590 272 590 c 0
 296 590 319 588 339 583 c 0
 412 565 451 507 451 413 c 0
 451 408 451 404 451 399 c 0
 450 349 410 311 329 280 c 0
 294 267 259 251 251 244 c 0
 243 238 233 232 228 232 c 0
 216 232 166 184 154 161 c 0
 148 151 145 142 145 137 c 0
 145 126 157 124 185 124 c 0x72
 222 124 285 109 338 88 c 0
 343 86 348 85 353 85 c 0
 379 85 404 107 410 138 c 0
 415 165 448 202 464 202 c 0
 466 202 467 202 468 201 c 0
 475 196 480 160 480 127 c 0
 480 110 479 94 476 83 c 0
 467 50 419 9 380 2 c 0
 377 1 373 1 369 1 c 0xb4
 352 1 328 8 296 23 c 0
 247 45 222 56 202 56 c 0
 184 56 172 47 151 30 c 0
 130 12 111 -2 107 -2 c 0
 103 -2 94 7 86 18 c 0x74
EndSplineSet
Validated: 1
EndChar

StartChar: three
Encoding: 51 51 247
Width: 540
VWidth: 0
Flags: W
HStem: 6 55<169.96 330.86> 343 51<308 355> 530 55<140.895 364.953>
VStem: 65 91<93.9402 159> 306 38<413.773 427.933> 436 59<150.23 290.013>
LayerCount: 2
Fore
SplineSet
220 8 m 0
 195 11 162 20 147 28 c 0
 111 47 74 95 67 134 c 0
 66 141 65 147 65 152 c 0
 65 166 72 174 93 190 c 0
 110 203 119 209 129 209 c 0
 135 209 141 207 150 203 c 0
 176 192 189 177 189 161 c 0
 189 150 183 137 170 125 c 0
 161 116 156 108 156 101 c 0
 156 89 170 79 201 71 c 0
 226 65 245 61 262 61 c 0
 291 61 314 71 346 92 c 0
 413 137 429 158 434 209 c 0
 435 219 436 227 436 234 c 0
 436 254 431 266 417 287 c 0
 393 323 383 330 331 340 c 0
 323 342 315 343 308 343 c 0
 297 343 288 340 281 335 c 0
 271 327 258 323 247 323 c 0
 239 323 233 325 230 330 c 0
 230 330 230 331 230 332 c 0
 230 339 245 362 265 386 c 0
 287 412 306 437 306 441 c 0
 306 445 320 464 338 484 c 0
 355 503 366 519 366 525 c 0
 366 526 l 0
 365 529 341 530 307 530 c 0
 290 530 271 530 251 529 c 2
 140 524 l 1
 132 466 l 2
 126 416 116 393 108 393 c 0
 98 393 90 424 90 485 c 0
 90 530 94 557 102 563 c 0
 116 575 261 585 357 585 c 0
 400 585 434 583 441 578 c 0
 448 574 451 567 451 559 c 0
 451 539 432 508 396 467 c 0
 359 425 344 407 344 399 c 0
 344 395 348 394 355 394 c 0
 362 394 392 378 421 358 c 0
 484 316 495 294 495 200 c 0
 495 137 494 134 458 89 c 0
 438 63 408 36 393 28 c 0
 366 14 313 6 263 6 c 0
 248 6 234 6 220 8 c 0
EndSplineSet
Validated: 1
EndChar

StartChar: four
Encoding: 52 52 248
Width: 540
VWidth: 0
Flags: W
HStem: 20 71<381.834 478.375> 27 54<185.299 233.86> 187 54<383.055 476.711> 588 20G<331.5 336>
VStem: 312 59<97.7381 178.696> 315 50<255.665 510.999>
LayerCount: 2
Fore
SplineSet
310 25 m 0xb8
 291 28 269 29 253 29 c 0
 245 29 238 29 234 28 c 0
 231 28 229 27 226 27 c 0
 204 27 182 41 182 53 c 0
 182 56 183 59 185 61 c 0
 191 66 222 75 256 81 c 0
 297 87 312 93 312 101 c 0x78
 312 102 311 103 311 104 c 0
 308 111 306 132 306 151 c 2
 306 186 l 1
 190 184 l 2
 176 184 163 184 152 184 c 0
 83 184 70 187 56 199 c 2
 37 216 l 1
 56 253 l 2
 82 303 122 358 144 373 c 0
 154 380 162 391 162 398 c 0
 162 405 184 434 212 463 c 0
 239 492 261 520 261 526 c 0
 261 531 267 538 274 541 c 0
 282 544 288 552 288 559 c 0
 288 565 298 580 311 592 c 0
 322 603 329 608 334 608 c 0
 338 608 342 605 347 600 c 0
 358 589 362 557 365 465 c 0x74
 374 244 374 241 432 241 c 0
 463 241 483 229 483 214 c 0
 483 209 481 205 477 200 c 0
 471 193 454 187 440 187 c 0
 427 187 404 183 391 178 c 0
 376 172 371 169 371 159 c 0
 371 154 372 148 374 140 c 0
 382 102 391 91 418 91 c 0
 422 91 426 92 430 92 c 0
 434 92 438 93 442 93 c 0
 472 93 486 82 486 60 c 0
 486 34 451 20 386 20 c 0
 364 20 339 22 310 25 c 0xb8
295 252 m 0
 305 265 315 386 315 458 c 0x34
 315 486 314 506 310 510 c 0
 310 510 310 511 309 511 c 0
 298 511 253 455 230 411 c 0
 217 388 204 367 199 366 c 0
 187 360 149 281 149 262 c 0
 149 260 149 259 150 258 c 0
 154 254 180 250 207 248 c 0
 234 246 263 244 271 243 c 0
 279 242 290 246 295 252 c 0
EndSplineSet
Validated: 1
EndChar

StartChar: five
Encoding: 53 53 249
Width: 540
VWidth: 0
Flags: W
HStem: 9 72<219.201 360.307> 396 50<227.174 361.232> 552 54<183.341 445.62>
VStem: 99 111<91.5764 189.681> 120 50<371.008 547.36> 432 66<160.942 329.309>
LayerCount: 2
Fore
SplineSet
230 13 m 0xec
 158 30 99 88 99 142 c 0
 99 182 114 202 144 202 c 0
 147 202 151 202 155 201 c 0
 193 196 210 176 210 140 c 0
 210 139 210 138 210 137 c 0
 210 136 210 136 210 135 c 0xf4
 210 99 230 81 270 81 c 0
 278 81 286 82 295 83 c 0
 352 91 372 103 401 146 c 0
 419 172 427 198 430 239 c 0
 431 252 432 262 432 271 c 0
 432 296 427 307 411 329 c 0
 387 363 343 392 310 395 c 0
 302 396 295 396 288 396 c 0
 253 396 237 386 204 353 c 0
 178 327 167 318 155 318 c 0
 151 318 147 319 142 321 c 0
 121 329 120 331 120 457 c 0
 120 574 121 584 137 593 c 0
 150 600 272 606 358 606 c 0
 392 606 421 605 434 603 c 0
 450 601 458 593 458 584 c 0
 458 577 454 570 446 562 c 0
 438 554 423 552 383 552 c 0
 365 552 343 552 314 553 c 0
 293 554 275 554 259 554 c 0
 214 554 190 551 183 546 c 0
 175 539 170 497 170 463 c 0
 170 440 173 421 178 421 c 0
 182 421 203 427 225 435 c 0
 246 442 269 446 292 446 c 0
 358 446 429 418 467 373 c 0
 487 349 498 292 498 235 c 0
 498 193 492 151 480 122 c 0
 467 91 408 34 389 34 c 0
 384 34 376 28 371 22 c 0
 364 14 321 9 281 9 c 0
 261 9 242 10 230 13 c 0xec
EndSplineSet
Validated: 1
EndChar

StartChar: six
Encoding: 54 54 250
Width: 540
VWidth: 0
Flags: W
HStem: 10 78<239.781 385.623> 337 62<245.629 379.495>
VStem: 119 61<170.887 429.048> 333 105<474.602 561.201> 432 74<134.647 297.33>
LayerCount: 2
Fore
SplineSet
233 23 m 0xe8
 156 52 119 122 119 243 c 0
 119 286 124 336 133 394 c 0
 147 480 190 545 246 564 c 0
 260 569 270 571 277 571 c 0
 284 571 288 569 288 565 c 0
 288 561 283 554 272 546 c 0
 232 514 180 420 180 378 c 0
 180 371 185 367 195 367 c 0
 208 367 229 373 261 385 c 0
 286 394 301 399 316 399 c 0
 327 399 338 397 353 393 c 0
 401 382 461 342 478 311 c 0
 493 283 506 217 506 178 c 0
 506 170 505 162 504 157 c 0
 482 63 426 15 334 10 c 0
 327 10 320 10 314 10 c 0
 282 10 257 14 233 23 c 0xe8
384 108 m 0
 419 132 432 164 432 225 c 0
 432 272 420 304 403 304 c 0
 397 304 386 310 377 318 c 0
 368 326 341 334 316 336 c 0
 308 337 302 337 296 337 c 0
 271 337 261 330 226 298 c 0
 189 265 180 252 180 228 c 0
 180 212 188 189 198 176 c 0
 208 163 216 146 216 138 c 0
 216 130 229 116 245 106 c 0
 264 94 289 88 313 88 c 0
 339 88 364 95 384 108 c 0
362 471 m 0
 336 482 333 488 333 519 c 0
 333 546 329 556 316 560 c 0
 304 564 300 571 303 583 c 0
 306 595 315 601 332 601 c 0
 345 601 364 597 387 590 c 0
 417 581 425 573 433 546 c 0
 436 535 438 527 438 519 c 0xf0
 438 508 435 498 428 485 c 0
 419 467 412 459 400 459 c 0
 391 459 380 463 362 471 c 0
EndSplineSet
Validated: 1
EndChar

StartChar: seven
Encoding: 55 55 251
Width: 540
VWidth: 0
Flags: W
HStem: 520 82<361.746 403> 520 63<277.039 402.728> 546 61<198.592 336.761>
VStem: 104 69<368.667 522.569> 216 69<38.4524 87.5312>
LayerCount: 2
Fore
SplineSet
216 57 m 0x98
 212 68 210 78 210 88 c 0
 210 101 214 116 221 140 c 0
 242 208 273 270 319 336 c 0
 340 366 367 419 380 455 c 2
 403 520 l 1
 382 520 l 2x98
 370 520 352 524 340 528 c 0
 328 532 295 540 268 543 c 0
 254 545 243 546 235 546 c 0
 218 546 211 541 200 530 c 0
 190 519 179 487 173 454 c 0
 160 375 149 351 128 351 c 0
 127 351 125 351 124 351 c 0
 107 354 104 355 104 425 c 0
 104 438 104 453 104 470 c 2
 105 588 l 1
 140 588 l 2
 159 588 193 594 215 600 c 0
 230 605 241 607 251 607 c 0x38
 263 607 275 604 292 597 c 0
 316 588 341 583 361 583 c 0x58
 377 583 388 586 392 592 c 0
 396 599 404 602 413 602 c 0
 428 602 445 594 451 580 c 0
 454 572 456 561 456 547 c 0
 456 502 440 431 416 385 c 0
 325 208 289 134 285 106 c 0
 277 53 260 24 243 24 c 0
 233 24 223 34 216 57 c 0x98
EndSplineSet
Validated: 1
EndChar

StartChar: eight
Encoding: 56 56 252
Width: 540
VWidth: 0
Flags: W
HStem: 9 71<175.937 384.144> 305 46<189.949 366.865> 552 44<178.668 366>
VStem: 36 83<126.841 258.098> 73 61<398.245 508.889> 420 42<400.678 508.75> 441 11<198 334>
LayerCount: 2
Fore
SplineSet
195 21 m 0xe2
 131 39 98 62 65 110 c 0
 44 142 36 163 36 190 c 0xf2
 36 229 74 322 90 322 c 0
 96 322 99 329 99 338 c 0
 99 351 94 368 85 380 c 0
 77 391 73 414 73 439 c 0
 73 468 78 499 88 519 c 0
 97 538 120 559 144 573 c 0
 180 593 195 596 275 596 c 2
 366 596 l 1
 413 562 l 1
 459 527 l 1
 461 467 l 2
 462 448 462 434 462 423 c 0xec
 462 394 460 381 454 351 c 0
 453 344 452 339 452 334 c 0
 452 322 456 312 467 301 c 0
 486 280 508 185 508 139 c 0
 508 129 507 121 505 117 c 0
 485 81 434 44 379 26 c 0
 344 15 312 9 279 9 c 0
 252 9 224 13 195 21 c 0xe2
406 122 m 0
 435 153 441 165 441 198 c 0
 441 273 395 305 286 305 c 0
 280 305 273 305 266 305 c 0
 200 303 182 299 161 283 c 0
 137 264 119 221 119 183 c 0
 119 176 120 170 121 163 c 0
 127 131 166 97 197 97 c 0
 207 97 218 93 221 87 c 0
 224 82 238 80 263 80 c 0
 274 80 286 80 300 81 c 0
 371 85 372 86 406 122 c 0
318 355 m 0
 350 359 368 368 392 393 c 0
 413 415 420 424 420 439 c 0
 420 444 419 450 418 457 c 0
 409 505 398 520 357 538 c 0
 336 547 301 552 268 552 c 0
 238 552 209 548 194 540 c 0
 155 519 134 485 134 452 c 0xec
 134 427 146 402 172 384 c 0
 205 361 231 351 269 351 c 0
 283 351 299 353 318 355 c 0
EndSplineSet
Validated: 1
EndChar

StartChar: nine
Encoding: 57 57 253
Width: 540
VWidth: 0
Flags: W
HStem: 12 79<260.5 349.614> 228 58<240.662 365.626> 244 60<290.501 385.997> 554 51<222.574 378.541>
VStem: 110 57<345.112 494.68> 171 118<92.2461 151.483> 422 73<176.633 327.416> 435 58<355.969 496.365>
LayerCount: 2
Fore
SplineSet
243 14 m 0xde
 231 16 210 28 196 41 c 0
 176 60 171 72 171 105 c 0
 171 141 175 148 201 165 c 2
 231 184 l 1
 258 161 l 2
 273 148 287 127 289 115 c 0
 291 99 298 91 309 91 c 0
 322 91 340 102 363 126 c 0
 399 163 422 203 422 227 c 0
 422 231 421 233 420 236 c 0
 418 242 415 244 408 244 c 0xbe
 402 244 392 242 376 237 c 0
 355 231 321 228 289 228 c 0
 255 228 223 231 214 238 c 0
 208 243 196 249 188 252 c 0
 180 255 160 276 145 299 c 0
 121 335 110 376 110 417 c 0
 110 489 145 558 208 587 c 0
 232 598 274 605 307 605 c 0
 323 605 337 604 346 600 c 0
 386 585 392 583 418 567 c 0
 433 558 455 531 467 508 c 0
 485 472 489 449 493 359 c 0xdd
 494 334 495 314 495 297 c 0
 495 252 490 229 477 187 c 0
 463 143 446 110 424 86 c 0
 384 42 319 12 264 12 c 0
 257 12 250 13 243 14 c 0xde
310 295 m 0
 313 300 328 304 343 304 c 0xbd
 358 304 369 307 369 312 c 0
 369 317 377 323 386 326 c 0
 406 332 422 366 432 416 c 0
 434 426 435 434 435 441 c 0
 435 456 430 469 418 489 c 0
 394 530 372 543 313 552 c 0
 306 553 299 554 292 554 c 0
 220 554 167 496 167 415 c 0
 167 375 171 363 193 340 c 0
 207 325 224 313 230 313 c 0
 236 313 243 307 246 300 c 0
 249 291 267 286 283 286 c 0xdd
 295 286 306 289 310 295 c 0
EndSplineSet
Validated: 1
EndChar

StartChar: colon
Encoding: 58 58 254
Width: 540
VWidth: 0
Flags: W
HStem: -34 171<257.697 343.126> 276 155<265.777 340.972>
VStem: 221 164<6.98886 100.403 317.573 381.108>
LayerCount: 2
Fore
SplineSet
268 -29 m 0
 238 -24 229 -12 222 28 c 0
 221 33 221 38 221 43 c 0
 221 94 269 137 314 137 c 0
 330 137 347 131 360 118 c 0
 377 101 385 81 385 61 c 0
 385 33 369 5 339 -15 c 0
 324 -25 308 -34 302 -34 c 0
 301 -34 l 0
 296 -33 281 -31 268 -29 c 0
239 285 m 0
 226 298 220 310 220 324 c 0
 220 338 226 355 240 377 c 0
 259 407 274 420 296 426 c 0
 307 429 316 431 324 431 c 0
 343 431 353 421 368 396 c 0
 375 384 379 371 379 359 c 0
 379 336 366 315 343 299 c 0
 322 284 293 276 270 276 c 0
 257 276 245 279 239 285 c 0
EndSplineSet
Validated: 1
EndChar

StartChar: semicolon
Encoding: 59 59 255
Width: 540
VWidth: 0
Flags: W
HStem: 296 158<165.695 263.855>
VStem: 137 160<331.154 423.372> 146 160<18.0436 110.617>
LayerCount: 2
Fore
SplineSet
151 -163 m 0xa0
 140 -157 134 -147 134 -136 c 0
 134 -117 149 -93 178 -67 c 2
 220 -29 l 1
 187 -1 l 2
 159 22 146 49 146 73 c 0
 146 104 168 132 209 143 c 0
 222 146 230 148 237 148 c 0
 247 148 254 144 263 136 c 0
 293 108 306 74 306 19 c 0
 305 -58 275 -111 206 -153 c 0
 185 -166 177 -171 170 -171 c 0
 165 -171 160 -168 151 -163 c 0xa0
183 304 m 0
 151 317 137 344 137 371 c 0
 137 407 162 444 207 452 c 0
 213 453 219 454 224 454 c 0
 240 454 250 448 268 431 c 0
 287 414 297 396 297 379 c 0xc0
 297 366 292 354 282 340 c 0
 261 310 243 296 219 296 c 0
 208 296 196 299 183 304 c 0
EndSplineSet
Validated: 1
EndChar
